<?xml version="1.0" encoding="utf-8"?>
<!-- Generator: Adobe Illustrator 21.0.0, SVG Export Plug-In . SVG Version: 6.00 Build 0)  -->
<svg version="1.1" id="Layer_1" xmlns="http://www.w3.org/2000/svg" xmlns:xlink="http://www.w3.org/1999/xlink" x="0px" y="0px"
	 viewBox="0 0 500 124.6" style="enable-background:new 0 0 500 124.6;" xml:space="preserve">
<style type="text/css">
	.st0{fill:#FFFFFF;}
</style>
<g>
	<g>
		<path class="st0" d="M173.6,77.2c-2.1,0-4.3,2-4.9,4.4c-0.6,2.4,0.6,4.4,2.7,4.4c2.1,0,4.3-2,4.9-4.4
			C176.8,79.2,175.6,77.2,173.6,77.2z"/>
		<rect x="169.4" y="91.4" class="st0" width="6" height="32.5"/>
	</g>
	<path class="st0" d="M72.8,66.4c13.1,7.9,29.5-0.5,38.7-10.5c3.7-4-2.3-10.1-6-6C98.8,57,88,64,78,59.5c-9-4-9.8-15.3-7.8-23.7
		c2.4-10.3,9.6-19.2,18.7-24.3c8.8-4.9,20.5-3.8,24.7,6.3c2.1,5,10.3,2.8,8.2-2.3C116.4,2.5,103.6-2.6,90.3,1.7
		c-14.1,4.5-24.5,18-28.3,31.9C58.7,45.6,61.6,59.7,72.8,66.4z"/>
	<path class="st0" d="M346.2,0.1c-18.8-1.5-34.6,17-39,33.5c0,0-8.7,26.5-13.1,39.8c-1.7,5.2,6.5,7.5,8.2,2.3
		c2.2-6.6,4.3-13.2,6.5-19.8c3.5,7.3,10.1,12.7,19.7,13.5c18.6,1.5,34.2-16.6,38.9-33c0.1-0.2,0.1-0.3,0.1-0.5
		c0-0.2,0.1-0.4,0.1-0.5C371.2,19.2,364.6,1.6,346.2,0.1z M359.3,33.6c-3.5,12.9-14.3,26.1-28.4,27.2c-14.2,1.1-18.1-13.7-15.5-24.9
		c0.1-0.2,0.1-0.4,0.2-0.6c3.2-12.7,14.7-25.6,28.3-26.7C358,7.5,361.9,22.4,359.3,33.6z"/>
	<path class="st0" d="M169.9,66.5c2.9-9.2,9.7-31.4,9.8-31.8c0.6-2.3,1-4.6,1.1-6.8c0.8-10.1-3.8-20.6-13-25.4
		c-11.2-5.9-24.2-0.6-33.3,6.6c-4.3,3.4,1.8,9.4,6,6c6.5-5.2,15.9-9,23.9-4.8c6.8,3.6,8.2,11.9,7.7,18.9c0,0.2,0,0.4-0.1,0.6
		c-13.7-1.9-29.9-1.5-41.8,5.3c-5.9,3.3-9.6,10.1-10.1,16.7c-0.5,7.8,5.9,13.2,12.5,15.7c10.9,4.1,21.3,1,29.7-5.8
		c-0.2,0.8-0.5,1.6-0.7,2.3C160,69.5,168.2,71.7,169.9,66.5z M135,59.5c-4.8-1.8-7.6-5.8-5.4-10.9c2-4.7,6-6.9,10.6-8.3
		c9.3-2.9,19.9-3.3,29.8-2.1c-0.1,0.2-0.1,0.4-0.2,0.6C164.1,52.5,149.4,65,135,59.5z"/>
	<path class="st0" d="M278.2,0.1c-12.6-1-23.8,6.9-31.2,17.2c-2.7-9.2-9.6-16.3-21-17.2c-18.8-1.5-34.6,17-39,33.5c0,0,0,0.1,0,0.1
		c-3.3,10.2-6.5,20.4-9.8,30.6c-1.7,5.3,6.6,7.5,8.2,2.3c3.3-10.3,10-31.3,10-31.5c3.7-12.6,14.3-25.4,28.2-26.5
		c14.2-1.1,18.1,13.8,15.5,25c0,0.1-6.5,20.6-9.7,30.7c-1.7,5.3,6.6,7.5,8.2,2.3c3.3-10.2,9.9-31.1,9.9-31.3
		c3.7-12.7,14.3-25.5,28.3-26.6c14.2-1.1,18.1,13.8,15.5,25c0,0-6.5,20.5-9.8,30.7c-1.7,5.3,6.6,7.5,8.2,2.3
		c3.3-10.2,9.9-31.2,9.9-31.4C303.1,19,296.5,1.6,278.2,0.1z"/>
	<path class="st0" d="M436.4,3.1c-2.9,8.9-5.7,17.9-8.6,26.8c-1.7,5.5-3.4,10.7-6.5,15.7c-5,7.8-13.6,14.5-23.1,15.2
		c-16,1.2-18.2-16.5-14.5-28c2.9-9.1,5.8-18.3,8.8-27.4c1.7-5.3-6.6-7.5-8.2-2.3c-3.2,9.9-6.3,19.8-9.5,29.7
		c-5.2,16.3,2.8,35.1,21.1,36.6c19.7,1.6,34-17.5,39.2-34c3.2-10,6.4-20,9.6-29.9C446.3,0.1,438.1-2.1,436.4,3.1z"/>
	<path class="st0" d="M499.7,15.7c-3.3-8.1-9.4-14-18.3-15.4c-9.9-1.5-19.2,3-26.6,9c-7.7,6.3-14,16.8-4.1,24.1
		c6.8,5,16.8,6,24.7,8.2c3.1,0.9,7.5,1.8,9.3,3.5c1.4,1.3-0.1,3-2.1,5.4c-9.5,9.6-27.3,16.4-34.3,0.5c-2.2-5-9.6-0.7-7.4,4.3
		c3.7,8.4,11,13.1,20,13.9c10.6,1,21-5.7,28-13c0.2-0.2,0.4-0.4,0.5-0.7c5-5.7,6.3-12.7-0.6-17.7c-6.3-4.5-15.3-5.5-22.6-7.5
		c-5-1.3-12.8-3.7-12.3-6.8c1.5-5.7,10-11.2,15.2-13.4c8.6-3.6,18.6-1.5,22.3,7.7C493.5,23,501.7,20.8,499.7,15.7z"/>
	<path class="st0" d="M13.1,66.4c13.1,7.9,29.5-0.5,38.7-10.5c3.7-4-2.3-10.1-6-6C39.2,57,28.3,64,18.3,59.5c-9-4-9.8-15.3-7.8-23.7
		c2.4-10.3,9.6-19.2,18.7-24.3c8-4.4,18.4-3.9,23.4,3.8C44.9,20.6,37.2,25.8,29.5,31c-4.5,3.1-0.3,10.5,4.3,7.4
		c8.8-6,17.6-12,26.4-18c1.4-1,2.7-3,2-4.8C56.7,2.5,43.9-2.6,30.6,1.7C16.4,6.2,6,19.7,2.3,33.6C-1,45.6,1.9,59.7,13.1,66.4z"/>
	<path class="st0" d="M21.4,78.7C7.9,78.7,0,88.5,0,101.7c0,13.5,7.8,22.9,21.4,22.9c13.5,0,21.4-9.5,21.4-22.9
		C42.7,88.5,34.8,78.7,21.4,78.7z M21.4,119c-10.2,0-14.6-8.5-14.6-17.3c0-9,4.8-17.4,14.6-17.3c9.8-0.1,14.6,8.3,14.6,17.3
		C36,110.5,31.6,119,21.4,119z"/>
	<path class="st0" d="M65.8,90.7c-4.5,0-8.8,2.2-10.6,5.9h-0.1v-5.1h-5.8v32.4h6v-15c0-7.9,3-13.3,9.8-13.3c5.2,0.3,6.9,4,6.9,11.6
		v16.8h6v-19.3C77.9,95.9,74.2,90.7,65.8,90.7z"/>
	<path class="st0" d="M94.3,114V96.3h8.6v-4.8h-8.6V78.5l-6,1.5v11.4h-5.2v4.8h5.2v18.9c0,6.5,3.8,9.4,10,9.4c1.9,0,3.8-0.5,5.1-0.9
		v-5.1c-0.9,0.6-2.2,1.1-4.1,1.1C96.6,119.8,94.3,117.7,94.3,114z"/>
	<path class="st0" d="M135.6,104.1c0-8.8-3.7-13.4-13-13.4c-4.1,0-7.7,1.3-10.7,3l0.3,5.1c2.4-2,6-3.3,9.4-3.3c6,0,8,2.9,8,8.5
		c-2.4-0.1-4-0.1-6.4-0.1c-6.2,0-15.1,2.5-15.1,10.7c0,7.1,4.9,10.1,11.9,10.1c5.5,0,8.6-3,10-5h0.1v4.2h5.6c-0.1-1-0.3-2.7-0.3-6.4
		L135.6,104.1L135.6,104.1z M129.6,111.3c0,4.8-3.1,8.5-9,8.5c-2.7,0-6-1.8-6-5.3c0-5.7,8-6.2,11.2-6.2c1.3,0,2.5,0.1,3.8,0.1
		L129.6,111.3L129.6,111.3z"/>
	<path class="st0" d="M148.9,96.5h-0.1v-5h-5.6v32.4h6v-14.7c0-8.1,3.5-13.2,8.8-13.2c1,0,2.2,0.1,3.3,0.6v-5.3
		c-1.3-0.3-2.2-0.4-3.9-0.4C153.9,90.7,150.5,93.1,148.9,96.5z"/>
	<path class="st0" d="M198.1,90.7c-9.9,0-16.5,7.1-16.5,17c0,9.3,6.7,17,16.5,17c9.7,0,16.5-7.7,16.5-17
		C214.5,97.8,207.9,90.7,198.1,90.7z M198.1,119.8c-7.1,0-10.2-6.4-10.2-12.1c0-6.2,3.8-12.1,10.2-12.1c6.4,0,10.1,6,10.1,12.1
		C208.2,113.4,205,119.8,198.1,119.8z"/>
</g>
</svg>
