<svg version="1.1" id="Layer_1" xmlns="http://www.w3.org/2000/svg" x="0" y="0" viewBox="0 0 500 124.6" xml:space="preserve"><style type="text/css">.st0{fill:#fff}</style><path class="st0" d="M173.6 77.2c-2.1 0-4.3 2-4.9 4.4-.6 2.4.6 4.4 2.7 4.4s4.3-2 4.9-4.4c.5-2.4-.7-4.4-2.7-4.4zM169.4 91.4h6v32.5h-6zM72.8 66.4c13.1 7.9 29.5-.5 38.7-10.5 3.7-4-2.3-10.1-6-6C98.8 57 88 64 78 59.5c-9-4-9.8-15.3-7.8-23.7 2.4-10.3 9.6-19.2 18.7-24.3 8.8-4.9 20.5-3.8 24.7 6.3 2.1 5 10.3 2.8 8.2-2.3-5.4-13-18.2-18.1-31.5-13.8-14.1 4.5-24.5 18-28.3 31.9-3.3 12-.4 26.1 10.8 32.8zM346.2.1c-18.8-1.5-34.6 17-39 33.5 0 0-8.7 26.5-13.1 39.8-1.7 5.2 6.5 7.5 8.2 2.3 2.2-6.6 4.3-13.2 6.5-19.8 3.5 7.3 10.1 12.7 19.7 13.5 18.6 1.5 34.2-16.6 38.9-33 .1-.2.1-.3.1-.5s.1-.4.1-.5c3.6-16.2-3-33.8-21.4-35.3zm13.1 33.5c-3.5 12.9-14.3 26.1-28.4 27.2-14.2 1.1-18.1-13.7-15.5-24.9.1-.2.1-.4.2-.6 3.2-12.7 14.7-25.6 28.3-26.7 14.1-1.1 18 13.8 15.4 25zM169.9 66.5c2.9-9.2 9.7-31.4 9.8-31.8.6-2.3 1-4.6 1.1-6.8.8-10.1-3.8-20.6-13-25.4-11.2-5.9-24.2-.6-33.3 6.6-4.3 3.4 1.8 9.4 6 6 6.5-5.2 15.9-9 23.9-4.8 6.8 3.6 8.2 11.9 7.7 18.9 0 .2 0 .4-.1.6-13.7-1.9-29.9-1.5-41.8 5.3-5.9 3.3-9.6 10.1-10.1 16.7-.5 7.8 5.9 13.2 12.5 15.7 10.9 4.1 21.3 1 29.7-5.8-.2.8-.5 1.6-.7 2.3-1.6 5.5 6.6 7.7 8.3 2.5zm-34.9-7c-4.8-1.8-7.6-5.8-5.4-10.9 2-4.7 6-6.9 10.6-8.3 9.3-2.9 19.9-3.3 29.8-2.1-.1.2-.1.4-.2.6-5.7 13.7-20.4 26.2-34.8 20.7zM278.2.1C265.6-.9 254.4 7 247 17.3 244.3 8.1 237.4 1 226 .1c-18.8-1.5-34.6 17-39 33.5v.1c-3.3 10.2-6.5 20.4-9.8 30.6-1.7 5.3 6.6 7.5 8.2 2.3 3.3-10.3 10-31.3 10-31.5 3.7-12.6 14.3-25.4 28.2-26.5 14.2-1.1 18.1 13.8 15.5 25 0 .1-6.5 20.6-9.7 30.7-1.7 5.3 6.6 7.5 8.2 2.3 3.3-10.2 9.9-31.1 9.9-31.3 3.7-12.7 14.3-25.5 28.3-26.6 14.2-1.1 18.1 13.8 15.5 25 0 0-6.5 20.5-9.8 30.7-1.7 5.3 6.6 7.5 8.2 2.3 3.3-10.2 9.9-31.2 9.9-31.4C303.1 19 296.5 1.6 278.2.1zM436.4 3.1c-2.9 8.9-5.7 17.9-8.6 26.8-1.7 5.5-3.4 10.7-6.5 15.7-5 7.8-13.6 14.5-23.1 15.2-16 1.2-18.2-16.5-14.5-28 2.9-9.1 5.8-18.3 8.8-27.4 1.7-5.3-6.6-7.5-8.2-2.3-3.2 9.9-6.3 19.8-9.5 29.7-5.2 16.3 2.8 35.1 21.1 36.6 19.7 1.6 34-17.5 39.2-34 3.2-10 6.4-20 9.6-29.9 1.6-5.4-6.6-7.6-8.3-2.4zM499.7 15.7c-3.3-8.1-9.4-14-18.3-15.4-9.9-1.5-19.2 3-26.6 9-7.7 6.3-14 16.8-4.1 24.1 6.8 5 16.8 6 24.7 8.2 3.1.9 7.5 1.8 9.3 3.5 1.4 1.3-.1 3-2.1 5.4-9.5 9.6-27.3 16.4-34.3.5-2.2-5-9.6-.7-7.4 4.3 3.7 8.4 11 13.1 20 13.9 10.6 1 21-5.7 28-13 .2-.2.4-.4.5-.7 5-5.7 6.3-12.7-.6-17.7-6.3-4.5-15.3-5.5-22.6-7.5-5-1.3-12.8-3.7-12.3-6.8 1.5-5.7 10-11.2 15.2-13.4 8.6-3.6 18.6-1.5 22.3 7.7 2.1 5.2 10.3 3 8.3-2.1zM13.1 66.4c13.1 7.9 29.5-.5 38.7-10.5 3.7-4-2.3-10.1-6-6C39.2 57 28.3 64 18.3 59.5c-9-4-9.8-15.3-7.8-23.7 2.4-10.3 9.6-19.2 18.7-24.3 8-4.4 18.4-3.9 23.4 3.8-7.7 5.3-15.4 10.5-23.1 15.7-4.5 3.1-.3 10.5 4.3 7.4l26.4-18c1.4-1 2.7-3 2-4.8C56.7 2.5 43.9-2.6 30.6 1.7 16.4 6.2 6 19.7 2.3 33.6c-3.3 12-.4 26.1 10.8 32.8zM21.4 78.7C7.9 78.7 0 88.5 0 101.7c0 13.5 7.8 22.9 21.4 22.9 13.5 0 21.4-9.5 21.4-22.9-.1-13.2-8-23-21.4-23zm0 40.3c-10.2 0-14.6-8.5-14.6-17.3 0-9 4.8-17.4 14.6-17.3 9.8-.1 14.6 8.3 14.6 17.3 0 8.8-4.4 17.3-14.6 17.3zM65.8 90.7c-4.5 0-8.8 2.2-10.6 5.9h-.1v-5.1h-5.8v32.4h6v-15c0-7.9 3-13.3 9.8-13.3 5.2.3 6.9 4 6.9 11.6V124h6v-19.3c-.1-8.8-3.8-14-12.2-14zM94.3 114V96.3h8.6v-4.8h-8.6v-13l-6 1.5v11.4h-5.2v4.8h5.2v18.9c0 6.5 3.8 9.4 10 9.4 1.9 0 3.8-.5 5.1-.9v-5.1c-.9.6-2.2 1.1-4.1 1.1-2.7.2-5-1.9-5-5.6zM135.6 104.1c0-8.8-3.7-13.4-13-13.4-4.1 0-7.7 1.3-10.7 3l.3 5.1c2.4-2 6-3.3 9.4-3.3 6 0 8 2.9 8 8.5-2.4-.1-4-.1-6.4-.1-6.2 0-15.1 2.5-15.1 10.7 0 7.1 4.9 10.1 11.9 10.1 5.5 0 8.6-3 10-5h.1v4.2h5.6c-.1-1-.3-2.7-.3-6.4l.2-13.4zm-6 7.2c0 4.8-3.1 8.5-9 8.5-2.7 0-6-1.8-6-5.3 0-5.7 8-6.2 11.2-6.2 1.3 0 2.5.1 3.8.1v2.9zM148.9 96.5h-.1v-5h-5.6v32.4h6v-14.7c0-8.1 3.5-13.2 8.8-13.2 1 0 2.2.1 3.3.6v-5.3c-1.3-.3-2.2-.4-3.9-.4-3.5-.2-6.9 2.2-8.5 5.6zM198.1 90.7c-9.9 0-16.5 7.1-16.5 17 0 9.3 6.7 17 16.5 17 9.7 0 16.5-7.7 16.5-17-.1-9.9-6.7-17-16.5-17zm0 29.1c-7.1 0-10.2-6.4-10.2-12.1 0-6.2 3.8-12.1 10.2-12.1 6.4 0 10.1 6 10.1 12.1 0 5.7-3.2 12.1-10.1 12.1z"/></svg>