<svg version="1.1" xmlns="http://www.w3.org/2000/svg" x="0" y="0" width="16" height="16" viewBox="-0.213 -0.213 16 16" xml:space="preserve"><defs><pattern x="-.213" y="15.787" width="69" height="69" patternUnits="userSpaceOnUse" id="Polka_Dot_Pattern" viewBox="2.125 -70.896 69 69" overflow="visible"><path fill="none" d="M71.125-1.896h-69v-69h69z"/><path fill="#F7BC60" d="M71.125-1.896h-69v-69h69z"/><g fill="#FFF"><path d="M61.772-71.653a.247.247 0 0 1-.026.19c-.053.101-.112.063-.165.128a.638.638 0 0 0-.079.362c-.169.058-.01.227-.015.35-.002.05-.041.105-.045.161a.764.764 0 0 0 .068.37c.097.198.268.413.435.544.19.148.365.572.608.631.177.042.384-.104.543-.143.18-.043.397.01.571-.053.222-.079.127-.337.288-.45.104-.074.287-.01.406-.051a.607.607 0 0 0 .376-.46c.016-.082.01-.145.039-.221.039-.103.111-.16.09-.293-.01-.062-.052-.12-.064-.187-.022-.114.002-.224 0-.337-.003-.2.017-.379-.078-.55-.38-.688-1.236-.929-1.975-.789-.18.034-.287.126-.442.207-.17.088-.139.166-.318.224-.081.026-.216.124-.215.224.001.115.005.051.012.169-.021.011-.021-.005-.03-.025M54.105-71.653a.247.247 0 0 1-.026.19c-.053.101-.112.063-.165.128a.638.638 0 0 0-.079.362c-.169.058-.01.227-.015.35-.002.05-.041.105-.045.161a.764.764 0 0 0 .068.37c.097.198.268.413.435.544.19.148.365.572.608.631.177.042.384-.104.543-.143.18-.043.397.01.571-.053.222-.079.127-.337.288-.45.104-.074.287-.01.406-.051a.607.607 0 0 0 .376-.46c.016-.082.01-.145.039-.221.039-.103.111-.16.09-.293-.01-.062-.052-.12-.064-.187-.022-.114.002-.224 0-.337-.003-.2.017-.379-.078-.55-.38-.688-1.236-.929-1.975-.789-.18.034-.287.126-.442.207-.17.088-.139.166-.318.224-.081.026-.216.124-.215.224.001.115.005.051.012.169-.021.011-.021-.005-.03-.025M46.439-71.653a.247.247 0 0 1-.026.19c-.053.101-.112.063-.165.128a.638.638 0 0 0-.079.362c-.169.058-.01.227-.015.35-.002.05-.041.105-.045.161a.764.764 0 0 0 .068.37c.097.198.268.413.435.544.19.148.365.572.608.631.177.042.384-.104.543-.143.18-.043.397.01.571-.053.222-.079.127-.337.288-.45.104-.074.287-.01.406-.051a.607.607 0 0 0 .376-.46c.016-.082.01-.145.039-.221.039-.103.111-.16.09-.293-.01-.062-.052-.12-.064-.187-.022-.114.002-.224 0-.337-.003-.2.017-.379-.078-.55-.38-.688-1.236-.929-1.975-.789-.18.034-.287.126-.442.207-.17.088-.139.166-.318.224-.081.026-.216.124-.215.224.001.115.005.051.012.169-.021.011-.021-.005-.03-.025M38.772-71.653a.247.247 0 0 1-.026.19c-.053.101-.112.063-.165.128a.638.638 0 0 0-.079.362c-.169.058-.01.227-.015.35-.002.05-.041.105-.045.161a.764.764 0 0 0 .068.37c.097.198.268.413.435.544.19.148.365.572.608.631.177.042.384-.104.543-.143.18-.043.397.01.571-.053.222-.079.127-.337.288-.45.104-.074.287-.01.406-.051a.607.607 0 0 0 .376-.46c.016-.082.01-.145.039-.221.039-.103.111-.16.09-.293-.01-.062-.052-.12-.064-.187-.022-.114.002-.224 0-.337-.003-.2.017-.379-.078-.55-.38-.688-1.236-.929-1.975-.789-.18.034-.287.126-.442.207-.17.088-.139.166-.318.224-.081.026-.216.124-.215.224.001.115.005.051.012.169-.021.011-.021-.005-.03-.025M31.105-71.653a.247.247 0 0 1-.026.19c-.053.101-.112.063-.165.128a.638.638 0 0 0-.079.362c-.169.058-.01.227-.015.35-.002.05-.041.105-.045.161a.764.764 0 0 0 .068.37c.097.198.268.413.435.544.19.148.365.572.608.631.177.042.384-.104.543-.143.18-.043.397.01.571-.053.222-.079.127-.337.288-.45.104-.074.287-.01.406-.051a.607.607 0 0 0 .376-.46c.016-.082.01-.145.039-.221.039-.103.111-.16.09-.293-.01-.062-.052-.12-.064-.187-.022-.114.002-.224 0-.337-.003-.2.017-.379-.078-.55-.38-.688-1.236-.929-1.975-.789-.18.034-.287.126-.442.207-.17.088-.139.166-.318.224-.081.026-.216.124-.215.224.001.115.005.051.012.169-.021.011-.021-.005-.03-.025M23.439-71.653a.247.247 0 0 1-.026.19c-.053.101-.112.063-.165.128a.638.638 0 0 0-.079.362c-.169.058-.01.227-.015.35-.002.05-.041.105-.045.161a.764.764 0 0 0 .068.37c.097.198.268.413.435.544.19.148.365.572.608.631.177.042.384-.104.543-.143.18-.043.397.01.571-.053.222-.079.127-.337.288-.45.104-.074.287-.01.406-.051a.607.607 0 0 0 .376-.46c.016-.082.01-.145.039-.221.039-.103.111-.16.09-.293-.01-.062-.052-.12-.064-.187-.022-.114.002-.224 0-.337-.003-.2.017-.379-.078-.55-.38-.688-1.236-.929-1.975-.789-.18.034-.287.126-.442.207-.17.088-.139.166-.318.224-.081.026-.216.124-.215.224.001.115.005.051.012.169-.021.011-.021-.005-.03-.025M15.772-71.653a.247.247 0 0 1-.026.19c-.053.101-.112.063-.165.128a.638.638 0 0 0-.079.362c-.169.058-.01.227-.015.35-.002.05-.041.105-.045.161a.764.764 0 0 0 .068.37c.097.198.268.413.435.544.19.148.365.572.608.631.177.042.384-.104.543-.143.18-.043.397.01.571-.053.222-.079.127-.337.288-.45.104-.074.287-.01.406-.051a.607.607 0 0 0 .376-.46c.016-.082.01-.145.039-.221.039-.103.111-.16.09-.293-.01-.062-.052-.12-.064-.187-.022-.114.002-.224 0-.337-.003-.2.017-.379-.078-.55-.38-.688-1.236-.929-1.975-.789-.18.034-.287.126-.442.207-.17.088-.139.166-.318.224-.081.026-.216.124-.215.224.001.115.005.051.012.169-.021.011-.021-.005-.03-.025M8.105-71.653a.247.247 0 0 1-.026.19c-.053.101-.112.063-.165.128a.638.638 0 0 0-.079.362c-.169.058-.01.227-.015.35-.002.05-.041.105-.045.161a.764.764 0 0 0 .068.37c.097.198.268.413.435.544.19.148.365.572.608.631.177.042.384-.104.543-.143.18-.043.397.01.571-.053.222-.079.127-.337.288-.45.104-.074.287-.01.406-.051a.607.607 0 0 0 .376-.46c.016-.082.01-.145.039-.221.039-.103.111-.16.09-.293-.01-.062-.052-.12-.064-.187-.022-.114.002-.224 0-.337-.003-.2.017-.379-.078-.55-.38-.688-1.236-.929-1.975-.789-.18.034-.287.126-.442.207-.17.088-.139.166-.318.224-.081.026-.216.124-.215.224.001.115.005.051.012.169-.021.011-.021-.005-.03-.025M.439-71.653a.242.242 0 0 1-.026.19c-.052.101-.113.063-.165.128a.63.63 0 0 0-.079.362c-.169.058-.01.227-.015.35-.002.05-.041.105-.045.161a.764.764 0 0 0 .068.37c.097.198.268.413.435.544.19.148.365.572.608.631.177.042.384-.104.543-.143.18-.043.397.01.571-.053.222-.079.127-.337.288-.45.104-.074.287-.01.406-.051.2-.07.339-.263.376-.46.016-.082.01-.145.039-.221.038-.103.111-.16.09-.293-.01-.062-.051-.12-.064-.187-.021-.114.002-.224 0-.337-.003-.2.017-.379-.078-.55-.38-.688-1.236-.929-1.975-.789-.18.034-.287.126-.442.207-.17.088-.139.166-.318.224-.081.026-.215.124-.215.224.002.115.005.051.012.169-.021.011-.021-.005-.03-.025"/></g><path fill="#FFF" d="M69.439-71.653a.242.242 0 0 1-.026.19c-.052.101-.113.063-.165.128a.63.63 0 0 0-.079.362c-.169.058-.01.227-.015.35-.002.05-.041.105-.045.161a.764.764 0 0 0 .068.37c.097.198.268.413.435.544.19.148.365.572.608.631.177.042.384-.104.543-.143.18-.043.397.01.571-.053.222-.079.127-.337.288-.45.104-.074.287-.01.406-.051.2-.07.339-.263.376-.46.016-.082.01-.145.039-.221.038-.103.111-.16.09-.293-.01-.062-.051-.12-.064-.187-.021-.114.002-.224 0-.337-.003-.2.017-.379-.078-.55-.38-.688-1.236-.929-1.975-.789-.18.034-.287.126-.442.207-.17.088-.139.166-.318.224-.081.026-.215.124-.215.224.002.115.005.051.012.169-.021.011-.021-.005-.03-.025M.495-71.653a.242.242 0 0 1-.026.19c-.052.101-.113.063-.165.128a.63.63 0 0 0-.079.362c-.169.058-.01.227-.015.35-.002.05-.041.105-.045.161a.764.764 0 0 0 .068.37c.097.198.268.413.435.544.19.148.365.572.608.631.177.042.384-.104.543-.143.18-.043.397.01.571-.053.222-.079.127-.337.288-.45.104-.074.287-.01.406-.051.2-.07.339-.263.376-.46.016-.082.01-.145.039-.221.038-.103.111-.16.09-.293-.01-.062-.051-.12-.064-.187-.021-.114.002-.224 0-.337-.003-.2.017-.379-.078-.55-.38-.688-1.236-.929-1.975-.789-.18.034-.287.126-.442.207-.17.088-.139.166-.318.224-.081.026-.215.124-.215.224.003.116.006.052.013.17-.021.011-.021-.005-.03-.025"/><g fill="#FFF"><path d="M69.439-64.001a.247.247 0 0 1-.026.19c-.053.101-.112.063-.165.128a.638.638 0 0 0-.079.362c-.169.058-.01.227-.015.35-.002.05-.041.105-.045.161a.764.764 0 0 0 .068.37c.097.198.268.413.435.544.19.148.365.572.608.631.177.042.384-.104.543-.143.18-.043.397.01.571-.053.222-.079.127-.337.288-.45.104-.074.287-.01.406-.051a.607.607 0 0 0 .376-.46c.016-.082.01-.145.039-.221.039-.103.111-.16.09-.293-.01-.062-.052-.12-.064-.187-.022-.114.002-.224 0-.337-.003-.2.017-.379-.078-.55-.38-.688-1.236-.929-1.975-.789-.18.034-.287.126-.442.207-.17.088-.139.166-.318.224-.081.026-.216.124-.215.224.001.115.005.051.012.169-.021.011-.021-.005-.03-.025M61.778-64.001a.247.247 0 0 1-.026.19c-.053.101-.112.063-.165.128a.638.638 0 0 0-.079.362c-.169.058-.009.227-.015.35-.002.05-.041.105-.045.161a.764.764 0 0 0 .068.37c.097.198.268.413.435.544.19.148.365.572.608.631.177.042.384-.104.543-.143.18-.043.397.01.571-.053.222-.079.127-.337.288-.45.104-.074.287-.01.406-.051a.607.607 0 0 0 .376-.46c.016-.082.01-.145.039-.221.039-.103.111-.16.09-.293-.01-.062-.052-.12-.064-.187-.022-.114.002-.224 0-.337-.003-.2.017-.379-.078-.55-.38-.688-1.236-.929-1.975-.789-.18.034-.287.126-.442.207-.17.088-.139.166-.318.224-.081.026-.216.124-.215.224.001.115.005.051.012.169-.021.011-.021-.005-.03-.025M54.118-64.001a.247.247 0 0 1-.026.19c-.053.101-.112.063-.165.128a.638.638 0 0 0-.079.362c-.169.058-.009.227-.015.35-.002.05-.041.105-.045.161a.764.764 0 0 0 .068.37c.097.198.268.413.435.544.19.148.365.572.608.631.177.042.384-.104.543-.143.18-.043.397.01.571-.053.222-.079.127-.337.288-.45.104-.074.287-.01.406-.051a.607.607 0 0 0 .376-.46c.016-.082.01-.145.039-.221.039-.103.111-.16.09-.293-.01-.062-.052-.12-.064-.187-.022-.114.002-.224 0-.337-.003-.2.017-.379-.078-.55-.38-.688-1.236-.929-1.975-.789-.18.034-.287.126-.442.207-.17.088-.139.166-.318.224-.081.026-.216.124-.215.224.001.115.005.051.012.169-.021.011-.021-.005-.03-.025M46.458-64.001a.247.247 0 0 1-.026.19c-.053.101-.112.063-.165.128a.638.638 0 0 0-.079.362c-.169.058-.009.227-.015.35-.002.05-.041.105-.045.161a.764.764 0 0 0 .068.37c.097.198.268.413.435.544.19.148.365.572.608.631.177.042.384-.104.543-.143.18-.043.397.01.571-.053.222-.079.127-.337.288-.45.104-.074.287-.01.406-.051a.607.607 0 0 0 .376-.46c.016-.082.01-.145.039-.221.039-.103.111-.16.09-.293-.01-.062-.052-.12-.064-.187-.022-.114.002-.224 0-.337-.003-.2.017-.379-.078-.55-.38-.688-1.236-.929-1.975-.789-.18.034-.287.126-.442.207-.17.088-.139.166-.318.224-.081.026-.216.124-.215.224.001.115.005.051.012.169-.021.011-.021-.005-.03-.025M38.797-64.001a.247.247 0 0 1-.026.19c-.053.101-.112.063-.165.128a.638.638 0 0 0-.079.362c-.169.058-.009.227-.015.35-.002.05-.041.105-.045.161a.764.764 0 0 0 .068.37c.097.198.268.413.435.544.19.148.365.572.608.631.177.042.384-.104.543-.143.18-.043.397.01.571-.053.222-.079.127-.337.288-.45.104-.074.287-.01.406-.051a.607.607 0 0 0 .376-.46c.016-.082.01-.145.039-.221.039-.103.111-.16.09-.293-.01-.062-.052-.12-.064-.187-.022-.114.002-.224 0-.337-.003-.2.017-.379-.078-.55-.38-.688-1.236-.929-1.975-.789-.18.034-.287.126-.442.207-.17.088-.139.166-.318.224-.081.026-.216.124-.215.224.001.115.005.051.012.169-.021.011-.021-.005-.03-.025M31.137-64.001a.247.247 0 0 1-.026.19c-.053.101-.112.063-.165.128a.638.638 0 0 0-.079.362c-.169.058-.009.227-.015.35-.002.05-.041.105-.045.161a.764.764 0 0 0 .068.37c.097.198.268.413.435.544.19.148.365.572.608.631.177.042.384-.104.543-.143.18-.043.397.01.571-.053.222-.079.127-.337.288-.45.104-.074.287-.01.406-.051a.607.607 0 0 0 .376-.46c.016-.082.01-.145.039-.221.039-.103.111-.16.09-.293-.01-.062-.052-.12-.064-.187-.022-.114.002-.224 0-.337-.003-.2.017-.379-.078-.55-.38-.688-1.236-.929-1.975-.789-.18.034-.287.126-.442.207-.17.088-.139.166-.318.224-.081.026-.216.124-.215.224.001.115.005.051.012.169-.021.011-.021-.005-.03-.025M23.477-64.001a.247.247 0 0 1-.026.19c-.053.101-.112.063-.165.128a.638.638 0 0 0-.079.362c-.169.058-.009.227-.015.35-.002.05-.041.105-.045.161a.764.764 0 0 0 .068.37c.097.198.268.413.435.544.19.148.365.572.608.631.177.042.384-.104.543-.143.18-.043.397.01.571-.053.222-.079.127-.337.288-.45.104-.074.287-.01.406-.051a.607.607 0 0 0 .376-.46c.016-.082.01-.145.039-.221.039-.103.111-.16.09-.293-.01-.062-.052-.12-.064-.187-.022-.114.002-.224 0-.337-.003-.2.017-.379-.078-.55-.38-.688-1.236-.929-1.975-.789-.18.034-.287.126-.442.207-.17.088-.139.166-.318.224-.081.026-.216.124-.215.224.001.115.005.051.012.169-.021.011-.021-.005-.03-.025M15.816-64.001a.247.247 0 0 1-.026.19c-.053.101-.112.063-.165.128a.638.638 0 0 0-.079.362c-.169.058-.009.227-.015.35-.002.05-.041.105-.045.161a.764.764 0 0 0 .068.37c.097.198.268.413.435.544.19.148.365.572.608.631.177.042.384-.104.543-.143.18-.043.397.01.571-.053.222-.079.127-.337.288-.45.104-.074.287-.01.406-.051a.607.607 0 0 0 .376-.46c.016-.082.01-.145.039-.221.039-.103.111-.16.09-.293-.01-.062-.052-.12-.064-.187-.022-.114.002-.224 0-.337-.003-.2.017-.379-.078-.55-.38-.688-1.236-.929-1.975-.789-.18.034-.287.126-.442.207-.17.088-.139.166-.318.224-.081.026-.216.124-.215.224.001.115.005.051.012.169-.021.011-.021-.005-.03-.025M8.156-64.001a.247.247 0 0 1-.026.19c-.053.101-.112.063-.165.128a.638.638 0 0 0-.079.362c-.169.058-.009.227-.015.35-.002.05-.041.105-.045.161a.764.764 0 0 0 .068.37c.097.198.268.413.435.544.19.148.365.572.608.631.177.042.384-.104.543-.143.18-.043.397.01.571-.053.222-.079.127-.337.288-.45.104-.074.287-.01.406-.051a.607.607 0 0 0 .376-.46c.016-.082.01-.145.039-.221.039-.103.111-.16.09-.293-.01-.062-.052-.12-.064-.187-.022-.114.002-.224 0-.337-.003-.2.017-.379-.078-.55-.38-.688-1.236-.929-1.975-.789-.18.034-.287.126-.442.207-.17.088-.139.166-.318.224-.081.026-.216.124-.215.224.001.115.005.051.012.169-.021.011-.021-.005-.03-.025M.495-64.001a.247.247 0 0 1-.026.19c-.053.101-.112.063-.165.128a.638.638 0 0 0-.079.362c-.169.058-.01.227-.015.35-.002.05-.041.105-.045.161a.764.764 0 0 0 .068.37c.097.198.268.413.435.544.19.148.365.572.608.631.177.042.384-.104.543-.143.181-.042.398.011.572-.052.222-.079.127-.337.288-.45.104-.074.287-.01.406-.051a.607.607 0 0 0 .376-.46c.016-.082.01-.145.039-.221.039-.103.111-.16.09-.293-.01-.062-.052-.12-.064-.187-.022-.114.002-.224 0-.337-.003-.2.017-.379-.078-.55-.38-.688-1.236-.929-1.975-.789-.18.034-.287.126-.442.207-.17.088-.139.166-.318.224-.081.026-.216.124-.215.224.001.115.005.051.012.169-.021.011-.021-.005-.03-.025"/><g><path d="M69.439-56.348a.247.247 0 0 1-.026.19c-.053.101-.112.063-.165.128a.638.638 0 0 0-.079.362c-.169.058-.01.227-.015.35-.002.05-.041.105-.045.161a.764.764 0 0 0 .068.37c.097.198.268.413.435.544.19.148.365.572.608.631.177.042.384-.104.543-.143.18-.043.397.01.571-.053.222-.079.127-.337.288-.45.104-.074.287-.01.406-.051a.607.607 0 0 0 .376-.46c.016-.082.01-.145.039-.221.039-.103.111-.16.09-.293-.01-.062-.052-.12-.064-.187-.022-.114.002-.224 0-.337-.003-.2.017-.379-.078-.55-.38-.688-1.236-.929-1.975-.789-.18.034-.287.126-.442.207-.17.088-.139.166-.318.224-.081.026-.216.124-.215.224.001.115.005.051.012.169-.021.011-.021-.005-.03-.025M61.778-56.348a.247.247 0 0 1-.026.19c-.053.101-.112.063-.165.128a.638.638 0 0 0-.079.362c-.169.058-.009.227-.015.35-.002.05-.041.105-.045.161a.764.764 0 0 0 .068.37c.097.198.268.413.435.544.19.148.365.572.608.631.177.042.384-.104.543-.143.18-.043.397.01.571-.053.222-.079.127-.337.288-.45.104-.074.287-.01.406-.051a.607.607 0 0 0 .376-.46c.016-.082.01-.145.039-.221.039-.103.111-.16.09-.293-.01-.062-.052-.12-.064-.187-.022-.114.002-.224 0-.337-.003-.2.017-.379-.078-.55-.38-.688-1.236-.929-1.975-.789-.18.034-.287.126-.442.207-.17.088-.139.166-.318.224-.081.026-.216.124-.215.224.001.115.005.051.012.169-.021.011-.021-.005-.03-.025M54.118-56.348a.247.247 0 0 1-.026.19c-.053.101-.112.063-.165.128a.638.638 0 0 0-.079.362c-.169.058-.009.227-.015.35-.002.05-.041.105-.045.161a.764.764 0 0 0 .068.37c.097.198.268.413.435.544.19.148.365.572.608.631.177.042.384-.104.543-.143.18-.043.397.01.571-.053.222-.079.127-.337.288-.45.104-.074.287-.01.406-.051a.607.607 0 0 0 .376-.46c.016-.082.01-.145.039-.221.039-.103.111-.16.09-.293-.01-.062-.052-.12-.064-.187-.022-.114.002-.224 0-.337-.003-.2.017-.379-.078-.55-.38-.688-1.236-.929-1.975-.789-.18.034-.287.126-.442.207-.17.088-.139.166-.318.224-.081.026-.216.124-.215.224.001.115.005.051.012.169-.021.011-.021-.005-.03-.025M46.458-56.348a.247.247 0 0 1-.026.19c-.053.101-.112.063-.165.128a.638.638 0 0 0-.079.362c-.169.058-.009.227-.015.35-.002.05-.041.105-.045.161a.764.764 0 0 0 .068.37c.097.198.268.413.435.544.19.148.365.572.608.631.177.042.384-.104.543-.143.18-.043.397.01.571-.053.222-.079.127-.337.288-.45.104-.074.287-.01.406-.051a.607.607 0 0 0 .376-.46c.016-.082.01-.145.039-.221.039-.103.111-.16.09-.293-.01-.062-.052-.12-.064-.187-.022-.114.002-.224 0-.337-.003-.2.017-.379-.078-.55-.38-.688-1.236-.929-1.975-.789-.18.034-.287.126-.442.207-.17.088-.139.166-.318.224-.081.026-.216.124-.215.224.001.115.005.051.012.169-.021.011-.021-.005-.03-.025M38.797-56.348a.247.247 0 0 1-.026.19c-.053.101-.112.063-.165.128a.638.638 0 0 0-.079.362c-.169.058-.009.227-.015.35-.002.05-.041.105-.045.161a.764.764 0 0 0 .068.37c.097.198.268.413.435.544.19.148.365.572.608.631.177.042.384-.104.543-.143.18-.043.397.01.571-.053.222-.079.127-.337.288-.45.104-.074.287-.01.406-.051a.607.607 0 0 0 .376-.46c.016-.082.01-.145.039-.221.039-.103.111-.16.09-.293-.01-.062-.052-.12-.064-.187-.022-.114.002-.224 0-.337-.003-.2.017-.379-.078-.55-.38-.688-1.236-.929-1.975-.789-.18.034-.287.126-.442.207-.17.088-.139.166-.318.224-.081.026-.216.124-.215.224.001.115.005.051.012.169-.021.011-.021-.005-.03-.025M31.137-56.348a.247.247 0 0 1-.026.19c-.053.101-.112.063-.165.128a.638.638 0 0 0-.079.362c-.169.058-.009.227-.015.35-.002.05-.041.105-.045.161a.764.764 0 0 0 .068.37c.097.198.268.413.435.544.19.148.365.572.608.631.177.042.384-.104.543-.143.18-.043.397.01.571-.053.222-.079.127-.337.288-.45.104-.074.287-.01.406-.051a.607.607 0 0 0 .376-.46c.016-.082.01-.145.039-.221.039-.103.111-.16.09-.293-.01-.062-.052-.12-.064-.187-.022-.114.002-.224 0-.337-.003-.2.017-.379-.078-.55-.38-.688-1.236-.929-1.975-.789-.18.034-.287.126-.442.207-.17.088-.139.166-.318.224-.081.026-.216.124-.215.224.001.115.005.051.012.169-.021.011-.021-.005-.03-.025M23.477-56.348a.247.247 0 0 1-.026.19c-.053.101-.112.063-.165.128a.638.638 0 0 0-.079.362c-.169.058-.009.227-.015.35-.002.05-.041.105-.045.161a.764.764 0 0 0 .068.37c.097.198.268.413.435.544.19.148.365.572.608.631.177.042.384-.104.543-.143.18-.043.397.01.571-.053.222-.079.127-.337.288-.45.104-.074.287-.01.406-.051a.607.607 0 0 0 .376-.46c.016-.082.01-.145.039-.221.039-.103.111-.16.09-.293-.01-.062-.052-.12-.064-.187-.022-.114.002-.224 0-.337-.003-.2.017-.379-.078-.55-.38-.688-1.236-.929-1.975-.789-.18.034-.287.126-.442.207-.17.088-.139.166-.318.224-.081.026-.216.124-.215.224.001.115.005.051.012.169-.021.011-.021-.005-.03-.025M15.816-56.348a.247.247 0 0 1-.026.19c-.053.101-.112.063-.165.128a.638.638 0 0 0-.079.362c-.169.058-.009.227-.015.35-.002.05-.041.105-.045.161a.764.764 0 0 0 .068.37c.097.198.268.413.435.544.19.148.365.572.608.631.177.042.384-.104.543-.143.18-.043.397.01.571-.053.222-.079.127-.337.288-.45.104-.074.287-.01.406-.051a.607.607 0 0 0 .376-.46c.016-.082.01-.145.039-.221.039-.103.111-.16.09-.293-.01-.062-.052-.12-.064-.187-.022-.114.002-.224 0-.337-.003-.2.017-.379-.078-.55-.38-.688-1.236-.929-1.975-.789-.18.034-.287.126-.442.207-.17.088-.139.166-.318.224-.081.026-.216.124-.215.224.001.115.005.051.012.169-.021.011-.021-.005-.03-.025M8.156-56.348a.247.247 0 0 1-.026.19c-.053.101-.112.063-.165.128a.638.638 0 0 0-.079.362c-.169.058-.009.227-.015.35-.002.05-.041.105-.045.161a.764.764 0 0 0 .068.37c.097.198.268.413.435.544.19.148.365.572.608.631.177.042.384-.104.543-.143.18-.043.397.01.571-.053.222-.079.127-.337.288-.45.104-.074.287-.01.406-.051a.607.607 0 0 0 .376-.46c.016-.082.01-.145.039-.221.039-.103.111-.16.09-.293-.01-.062-.052-.12-.064-.187-.022-.114.002-.224 0-.337-.003-.2.017-.379-.078-.55-.38-.688-1.236-.929-1.975-.789-.18.034-.287.126-.442.207-.17.088-.139.166-.318.224-.081.026-.216.124-.215.224.001.115.005.051.012.169-.021.011-.021-.005-.03-.025M.495-56.348a.247.247 0 0 1-.026.19c-.053.101-.112.063-.165.128a.638.638 0 0 0-.079.362c-.169.058-.01.227-.015.35-.002.05-.041.105-.045.161a.764.764 0 0 0 .068.37c.097.198.268.413.435.544.19.148.365.572.608.631.177.042.384-.104.543-.143.18-.043.397.01.571-.053.222-.079.127-.337.288-.45.104-.074.287-.01.406-.051a.607.607 0 0 0 .376-.46c.016-.082.01-.145.039-.221.039-.103.111-.16.09-.293-.01-.062-.052-.12-.064-.187-.022-.114.002-.224 0-.337-.003-.2.017-.379-.078-.55-.38-.688-1.236-.929-1.975-.789-.18.034-.287.126-.442.207-.17.088-.139.166-.318.224-.081.026-.216.124-.215.224.003.117.006.053.013.171-.021.011-.021-.005-.03-.025"/></g><g><path d="M69.439-48.695a.247.247 0 0 1-.026.19c-.053.101-.112.063-.165.128a.638.638 0 0 0-.079.362c-.169.058-.01.227-.015.35-.002.05-.041.105-.045.161a.764.764 0 0 0 .068.37c.097.198.268.413.435.544.19.148.365.572.608.631.177.042.384-.104.543-.143.18-.043.397.01.571-.053.222-.079.127-.337.288-.45.104-.074.287-.01.406-.051a.607.607 0 0 0 .376-.46c.016-.082.01-.145.039-.221.039-.103.111-.16.09-.293-.01-.062-.052-.12-.064-.187-.022-.114.002-.224 0-.337-.003-.2.017-.379-.078-.55-.38-.688-1.236-.929-1.975-.789-.18.034-.287.126-.442.207-.17.088-.139.166-.318.224-.081.026-.216.124-.215.224.001.115.005.051.012.169-.021.011-.021-.005-.03-.025M61.778-48.695a.247.247 0 0 1-.026.19c-.053.101-.112.063-.165.128a.638.638 0 0 0-.079.362c-.169.058-.009.227-.015.35-.002.05-.041.105-.045.161a.764.764 0 0 0 .068.37c.097.198.268.413.435.544.19.148.365.572.608.631.177.042.384-.104.543-.143.18-.043.397.01.571-.053.222-.079.127-.337.288-.45.104-.074.287-.01.406-.051a.607.607 0 0 0 .376-.46c.016-.082.01-.145.039-.221.039-.103.111-.16.09-.293-.01-.062-.052-.12-.064-.187-.022-.114.002-.224 0-.337-.003-.2.017-.379-.078-.55-.38-.688-1.236-.929-1.975-.789-.18.034-.287.126-.442.207-.17.088-.139.166-.318.224-.081.026-.216.124-.215.224.001.115.005.051.012.169-.021.011-.021-.005-.03-.025M54.118-48.695a.247.247 0 0 1-.026.19c-.053.101-.112.063-.165.128a.638.638 0 0 0-.079.362c-.169.058-.009.227-.015.35-.002.05-.041.105-.045.161a.764.764 0 0 0 .068.37c.097.198.268.413.435.544.19.148.365.572.608.631.177.042.384-.104.543-.143.18-.043.397.01.571-.053.222-.079.127-.337.288-.45.104-.074.287-.01.406-.051a.607.607 0 0 0 .376-.46c.016-.082.01-.145.039-.221.039-.103.111-.16.09-.293-.01-.062-.052-.12-.064-.187-.022-.114.002-.224 0-.337-.003-.2.017-.379-.078-.55-.38-.688-1.236-.929-1.975-.789-.18.034-.287.126-.442.207-.17.088-.139.166-.318.224-.081.026-.216.124-.215.224.001.115.005.051.012.169-.021.011-.021-.005-.03-.025M46.458-48.695a.247.247 0 0 1-.026.19c-.053.101-.112.063-.165.128a.638.638 0 0 0-.079.362c-.169.058-.009.227-.015.35-.002.05-.041.105-.045.161a.764.764 0 0 0 .068.37c.097.198.268.413.435.544.19.148.365.572.608.631.177.042.384-.104.543-.143.18-.043.397.01.571-.053.222-.079.127-.337.288-.45.104-.074.287-.01.406-.051a.607.607 0 0 0 .376-.46c.016-.082.01-.145.039-.221.039-.103.111-.16.09-.293-.01-.062-.052-.12-.064-.187-.022-.114.002-.224 0-.337-.003-.2.017-.379-.078-.55-.38-.688-1.236-.929-1.975-.789-.18.034-.287.126-.442.207-.17.088-.139.166-.318.224-.081.026-.216.124-.215.224.001.115.005.051.012.169-.021.011-.021-.005-.03-.025M38.797-48.695a.247.247 0 0 1-.026.19c-.053.101-.112.063-.165.128a.638.638 0 0 0-.079.362c-.169.058-.009.227-.015.35-.002.05-.041.105-.045.161a.764.764 0 0 0 .068.37c.097.198.268.413.435.544.19.148.365.572.608.631.177.042.384-.104.543-.143.18-.043.397.01.571-.053.222-.079.127-.337.288-.45.104-.074.287-.01.406-.051a.607.607 0 0 0 .376-.46c.016-.082.01-.145.039-.221.039-.103.111-.16.09-.293-.01-.062-.052-.12-.064-.187-.022-.114.002-.224 0-.337-.003-.2.017-.379-.078-.55-.38-.688-1.236-.929-1.975-.789-.18.034-.287.126-.442.207-.17.088-.139.166-.318.224-.081.026-.216.124-.215.224.001.115.005.051.012.169-.021.011-.021-.005-.03-.025M31.137-48.695a.247.247 0 0 1-.026.19c-.053.101-.112.063-.165.128a.638.638 0 0 0-.079.362c-.169.058-.009.227-.015.35-.002.05-.041.105-.045.161a.764.764 0 0 0 .068.37c.097.198.268.413.435.544.19.148.365.572.608.631.177.042.384-.104.543-.143.18-.043.397.01.571-.053.222-.079.127-.337.288-.45.104-.074.287-.01.406-.051a.607.607 0 0 0 .376-.46c.016-.082.01-.145.039-.221.039-.103.111-.16.09-.293-.01-.062-.052-.12-.064-.187-.022-.114.002-.224 0-.337-.003-.2.017-.379-.078-.55-.38-.688-1.236-.929-1.975-.789-.18.034-.287.126-.442.207-.17.088-.139.166-.318.224-.081.026-.216.124-.215.224.001.115.005.051.012.169-.021.011-.021-.005-.03-.025M23.477-48.695a.247.247 0 0 1-.026.19c-.053.101-.112.063-.165.128a.638.638 0 0 0-.079.362c-.169.058-.009.227-.015.35-.002.05-.041.105-.045.161a.764.764 0 0 0 .068.37c.097.198.268.413.435.544.19.148.365.572.608.631.177.042.384-.104.543-.143.18-.043.397.01.571-.053.222-.079.127-.337.288-.45.104-.074.287-.01.406-.051a.607.607 0 0 0 .376-.46c.016-.082.01-.145.039-.221.039-.103.111-.16.09-.293-.01-.062-.052-.12-.064-.187-.022-.114.002-.224 0-.337-.003-.2.017-.379-.078-.55-.38-.688-1.236-.929-1.975-.789-.18.034-.287.126-.442.207-.17.088-.139.166-.318.224-.081.026-.216.124-.215.224.001.115.005.051.012.169-.021.011-.021-.005-.03-.025M15.816-48.695a.247.247 0 0 1-.026.19c-.053.101-.112.063-.165.128a.638.638 0 0 0-.079.362c-.169.058-.009.227-.015.35-.002.05-.041.105-.045.161a.764.764 0 0 0 .068.37c.097.198.268.413.435.544.19.148.365.572.608.631.177.042.384-.104.543-.143.18-.043.397.01.571-.053.222-.079.127-.337.288-.45.104-.074.287-.01.406-.051a.607.607 0 0 0 .376-.46c.016-.082.01-.145.039-.221.039-.103.111-.16.09-.293-.01-.062-.052-.12-.064-.187-.022-.114.002-.224 0-.337-.003-.2.017-.379-.078-.55-.38-.688-1.236-.929-1.975-.789-.18.034-.287.126-.442.207-.17.088-.139.166-.318.224-.081.026-.216.124-.215.224.001.115.005.051.012.169-.021.011-.021-.005-.03-.025M8.156-48.695a.247.247 0 0 1-.026.19c-.053.101-.112.063-.165.128a.638.638 0 0 0-.079.362c-.169.058-.009.227-.015.35-.002.05-.041.105-.045.161a.764.764 0 0 0 .068.37c.097.198.268.413.435.544.19.148.365.572.608.631.177.042.384-.104.543-.143.18-.043.397.01.571-.053.222-.079.127-.337.288-.45.104-.074.287-.01.406-.051a.607.607 0 0 0 .376-.46c.016-.082.01-.145.039-.221.039-.103.111-.16.09-.293-.01-.062-.052-.12-.064-.187-.022-.114.002-.224 0-.337-.003-.2.017-.379-.078-.55-.38-.688-1.236-.929-1.975-.789-.18.034-.287.126-.442.207-.17.088-.139.166-.318.224-.081.026-.216.124-.215.224.001.115.005.051.012.169-.021.011-.021-.005-.03-.025M.495-48.695a.247.247 0 0 1-.026.19c-.053.101-.112.063-.165.128a.638.638 0 0 0-.079.362c-.169.058-.01.227-.015.35-.002.05-.041.105-.045.161a.764.764 0 0 0 .068.37c.097.198.268.413.435.544.19.148.365.572.608.631.177.042.384-.104.543-.143.18-.043.397.01.571-.053.222-.079.127-.337.288-.45.104-.074.287-.01.406-.051a.607.607 0 0 0 .376-.46c.016-.082.01-.145.039-.221.039-.103.111-.16.09-.293-.01-.062-.052-.12-.064-.187-.022-.114.002-.224 0-.337-.003-.2.017-.379-.078-.55-.38-.688-1.236-.929-1.975-.789-.18.034-.287.126-.442.207-.17.088-.139.166-.318.224-.081.026-.216.124-.215.224.001.115.005.051.012.169-.021.011-.021-.005-.03-.025"/></g><g><path d="M69.439-41.042a.247.247 0 0 1-.026.19c-.053.101-.112.063-.165.128a.638.638 0 0 0-.079.362c-.169.058-.01.227-.015.35-.002.05-.041.105-.045.161a.764.764 0 0 0 .068.37c.097.198.268.413.435.544.19.148.365.572.608.631.177.042.384-.104.543-.143.18-.043.397.01.571-.053.222-.079.127-.337.288-.45.104-.074.287-.01.406-.051a.607.607 0 0 0 .376-.46c.016-.082.01-.145.039-.221.039-.103.111-.16.09-.293-.01-.062-.052-.12-.064-.187-.022-.114.002-.224 0-.337-.003-.2.017-.379-.078-.55-.38-.688-1.236-.929-1.975-.789-.18.034-.287.126-.442.207-.17.088-.139.166-.318.224-.081.026-.216.124-.215.224.001.115.005.051.012.169-.021.011-.021-.005-.03-.025M61.778-41.042a.247.247 0 0 1-.026.19c-.053.101-.112.063-.165.128a.638.638 0 0 0-.079.362c-.169.058-.009.227-.015.35-.002.05-.041.105-.045.161a.764.764 0 0 0 .068.37c.097.198.268.413.435.544.19.148.365.572.608.631.177.042.384-.104.543-.143.18-.043.397.01.571-.053.222-.079.127-.337.288-.45.104-.074.287-.01.406-.051a.607.607 0 0 0 .376-.46c.016-.082.01-.145.039-.221.039-.103.111-.16.09-.293-.01-.062-.052-.12-.064-.187-.022-.114.002-.224 0-.337-.003-.2.017-.379-.078-.55-.38-.688-1.236-.929-1.975-.789-.18.034-.287.126-.442.207-.17.088-.139.166-.318.224-.081.026-.216.124-.215.224.001.115.005.051.012.169-.021.011-.021-.005-.03-.025M54.118-41.042a.247.247 0 0 1-.026.19c-.053.101-.112.063-.165.128a.638.638 0 0 0-.079.362c-.169.058-.009.227-.015.35-.002.05-.041.105-.045.161a.764.764 0 0 0 .068.37c.097.198.268.413.435.544.19.148.365.572.608.631.177.042.384-.104.543-.143.18-.043.397.01.571-.053.222-.079.127-.337.288-.45.104-.074.287-.01.406-.051a.607.607 0 0 0 .376-.46c.016-.082.01-.145.039-.221.039-.103.111-.16.09-.293-.01-.062-.052-.12-.064-.187-.022-.114.002-.224 0-.337-.003-.2.017-.379-.078-.55-.38-.688-1.236-.929-1.975-.789-.18.034-.287.126-.442.207-.17.088-.139.166-.318.224-.081.026-.216.124-.215.224.001.115.005.051.012.169-.021.011-.021-.005-.03-.025M46.458-41.042a.247.247 0 0 1-.026.19c-.053.101-.112.063-.165.128a.638.638 0 0 0-.079.362c-.169.058-.009.227-.015.35-.002.05-.041.105-.045.161a.764.764 0 0 0 .068.37c.097.198.268.413.435.544.19.148.365.572.608.631.177.042.384-.104.543-.143.18-.043.397.01.571-.053.222-.079.127-.337.288-.45.104-.074.287-.01.406-.051a.607.607 0 0 0 .376-.46c.016-.082.01-.145.039-.221.039-.103.111-.16.09-.293-.01-.062-.052-.12-.064-.187-.022-.114.002-.224 0-.337-.003-.2.017-.379-.078-.55-.38-.688-1.236-.929-1.975-.789-.18.034-.287.126-.442.207-.17.088-.139.166-.318.224-.081.026-.216.124-.215.224.001.115.005.051.012.169-.021.011-.021-.005-.03-.025M38.797-41.042a.247.247 0 0 1-.026.19c-.053.101-.112.063-.165.128a.638.638 0 0 0-.079.362c-.169.058-.009.227-.015.35-.002.05-.041.105-.045.161a.764.764 0 0 0 .068.37c.097.198.268.413.435.544.19.148.365.572.608.631.177.042.384-.104.543-.143.18-.043.397.01.571-.053.222-.079.127-.337.288-.45.104-.074.287-.01.406-.051a.607.607 0 0 0 .376-.46c.016-.082.01-.145.039-.221.039-.103.111-.16.09-.293-.01-.062-.052-.12-.064-.187-.022-.114.002-.224 0-.337-.003-.2.017-.379-.078-.55-.38-.688-1.236-.929-1.975-.789-.18.034-.287.126-.442.207-.17.088-.139.166-.318.224-.081.026-.216.124-.215.224.001.115.005.051.012.169-.021.011-.021-.005-.03-.025M31.137-41.042a.247.247 0 0 1-.026.19c-.053.101-.112.063-.165.128a.638.638 0 0 0-.079.362c-.169.058-.009.227-.015.35-.002.05-.041.105-.045.161a.764.764 0 0 0 .068.37c.097.198.268.413.435.544.19.148.365.572.608.631.177.042.384-.104.543-.143.18-.043.397.01.571-.053.222-.079.127-.337.288-.45.104-.074.287-.01.406-.051a.607.607 0 0 0 .376-.46c.016-.082.01-.145.039-.221.039-.103.111-.16.09-.293-.01-.062-.052-.12-.064-.187-.022-.114.002-.224 0-.337-.003-.2.017-.379-.078-.55-.38-.688-1.236-.929-1.975-.789-.18.034-.287.126-.442.207-.17.088-.139.166-.318.224-.081.026-.216.124-.215.224.001.115.005.051.012.169-.021.011-.021-.005-.03-.025M23.477-41.042a.247.247 0 0 1-.026.19c-.053.101-.112.063-.165.128a.638.638 0 0 0-.079.362c-.169.058-.009.227-.015.35-.002.05-.041.105-.045.161a.764.764 0 0 0 .068.37c.097.198.268.413.435.544.19.148.365.572.608.631.177.042.384-.104.543-.143.18-.043.397.01.571-.053.222-.079.127-.337.288-.45.104-.074.287-.01.406-.051a.607.607 0 0 0 .376-.46c.016-.082.01-.145.039-.221.039-.103.111-.16.09-.293-.01-.062-.052-.12-.064-.187-.022-.114.002-.224 0-.337-.003-.2.017-.379-.078-.55-.38-.688-1.236-.929-1.975-.789-.18.034-.287.126-.442.207-.17.088-.139.166-.318.224-.081.026-.216.124-.215.224.001.115.005.051.012.169-.021.011-.021-.005-.03-.025M15.816-41.042a.247.247 0 0 1-.026.19c-.053.101-.112.063-.165.128a.638.638 0 0 0-.079.362c-.169.058-.009.227-.015.35-.002.05-.041.105-.045.161a.764.764 0 0 0 .068.37c.097.198.268.413.435.544.19.148.365.572.608.631.177.042.384-.104.543-.143.18-.043.397.01.571-.053.222-.079.127-.337.288-.45.104-.074.287-.01.406-.051a.607.607 0 0 0 .376-.46c.016-.082.01-.145.039-.221.039-.103.111-.16.09-.293-.01-.062-.052-.12-.064-.187-.022-.114.002-.224 0-.337-.003-.2.017-.379-.078-.55-.38-.688-1.236-.929-1.975-.789-.18.034-.287.126-.442.207-.17.088-.139.166-.318.224-.081.026-.216.124-.215.224.001.115.005.051.012.169-.021.011-.021-.005-.03-.025M8.156-41.042a.247.247 0 0 1-.026.19c-.053.101-.112.063-.165.128a.638.638 0 0 0-.079.362c-.169.058-.009.227-.015.35-.002.05-.041.105-.045.161a.764.764 0 0 0 .068.37c.097.198.268.413.435.544.19.148.365.572.608.631.177.042.384-.104.543-.143.18-.043.397.01.571-.053.222-.079.127-.337.288-.45.104-.074.287-.01.406-.051a.607.607 0 0 0 .376-.46c.016-.082.01-.145.039-.221.039-.103.111-.16.09-.293-.01-.062-.052-.12-.064-.187-.022-.114.002-.224 0-.337-.003-.2.017-.379-.078-.55-.38-.688-1.236-.929-1.975-.789-.18.034-.287.126-.442.207-.17.088-.139.166-.318.224-.081.026-.216.124-.215.224.001.115.005.051.012.169-.02.012-.021-.004-.03-.024M.495-41.042a.247.247 0 0 1-.026.19c-.053.101-.112.063-.165.128a.638.638 0 0 0-.079.362c-.169.058-.01.227-.015.35-.002.05-.041.105-.045.161a.764.764 0 0 0 .068.37c.097.198.268.413.435.544.19.148.365.572.608.631.177.042.384-.104.543-.143.18-.043.397.01.571-.053.222-.079.127-.337.288-.45.104-.074.287-.01.406-.051a.607.607 0 0 0 .376-.46c.016-.082.01-.145.039-.221.039-.103.111-.16.09-.293-.01-.062-.052-.12-.064-.187-.022-.114.002-.224 0-.337-.003-.2.017-.379-.078-.55-.38-.688-1.236-.929-1.975-.789-.18.034-.287.126-.442.207-.17.088-.139.166-.318.224-.081.026-.216.124-.215.224.001.115.005.051.012.169-.021.011-.021-.005-.03-.025"/></g><g><path d="M69.439-33.39a.247.247 0 0 1-.026.19c-.053.101-.112.063-.165.128a.638.638 0 0 0-.079.362c-.169.058-.01.227-.015.35-.002.05-.041.105-.045.161a.764.764 0 0 0 .068.37c.097.198.268.413.435.544.19.148.365.572.608.631.177.042.384-.104.543-.143.18-.043.397.01.571-.053.222-.079.127-.337.288-.45.104-.074.287-.01.406-.051a.607.607 0 0 0 .376-.46c.016-.082.01-.145.039-.221.039-.103.111-.16.09-.293-.01-.062-.052-.12-.064-.187-.022-.114.002-.224 0-.337-.003-.2.017-.379-.078-.55-.38-.688-1.236-.929-1.975-.789-.18.034-.287.126-.442.207-.17.088-.139.166-.318.224-.081.026-.216.124-.215.224.001.115.005.051.012.169-.021.011-.021-.005-.03-.025M61.778-33.39a.247.247 0 0 1-.026.19c-.053.101-.112.063-.165.128a.638.638 0 0 0-.079.362c-.169.058-.009.227-.015.35-.002.05-.041.105-.045.161a.764.764 0 0 0 .068.37c.097.198.268.413.435.544.19.148.365.572.608.631.177.042.384-.104.543-.143.18-.043.397.01.571-.053.222-.079.127-.337.288-.45.104-.074.287-.01.406-.051a.607.607 0 0 0 .376-.46c.016-.082.01-.145.039-.221.039-.103.111-.16.09-.293-.01-.062-.052-.12-.064-.187-.022-.114.002-.224 0-.337-.003-.2.017-.379-.078-.55-.38-.688-1.236-.929-1.975-.789-.18.034-.287.126-.442.207-.17.088-.139.166-.318.224-.081.026-.216.124-.215.224.001.115.005.051.012.169-.021.011-.021-.005-.03-.025M54.118-33.39a.247.247 0 0 1-.026.19c-.053.101-.112.063-.165.128a.638.638 0 0 0-.079.362c-.169.058-.009.227-.015.35-.002.05-.041.105-.045.161a.764.764 0 0 0 .068.37c.097.198.268.413.435.544.19.148.365.572.608.631.177.042.384-.104.543-.143.18-.043.397.01.571-.053.222-.079.127-.337.288-.45.104-.074.287-.01.406-.051a.607.607 0 0 0 .376-.46c.016-.082.01-.145.039-.221.039-.103.111-.16.09-.293-.01-.062-.052-.12-.064-.187-.022-.114.002-.224 0-.337-.003-.2.017-.379-.078-.55-.38-.688-1.236-.929-1.975-.789-.18.034-.287.126-.442.207-.17.088-.139.166-.318.224-.081.026-.216.124-.215.224.001.115.005.051.012.169-.021.011-.021-.005-.03-.025M46.458-33.39a.247.247 0 0 1-.026.19c-.053.101-.112.063-.165.128a.638.638 0 0 0-.079.362c-.169.058-.009.227-.015.35-.002.05-.041.105-.045.161a.764.764 0 0 0 .068.37c.097.198.268.413.435.544.19.148.365.572.608.631.177.042.384-.104.543-.143.18-.043.397.01.571-.053.222-.079.127-.337.288-.45.104-.074.287-.01.406-.051a.607.607 0 0 0 .376-.46c.016-.082.01-.145.039-.221.039-.103.111-.16.09-.293-.01-.062-.052-.12-.064-.187-.022-.114.002-.224 0-.337-.003-.2.017-.379-.078-.55-.38-.688-1.236-.929-1.975-.789-.18.034-.287.126-.442.207-.17.088-.139.166-.318.224-.081.026-.216.124-.215.224.001.115.005.051.012.169-.021.011-.021-.005-.03-.025M38.797-33.39a.247.247 0 0 1-.026.19c-.053.101-.112.063-.165.128a.638.638 0 0 0-.079.362c-.169.058-.009.227-.015.35-.002.05-.041.105-.045.161a.764.764 0 0 0 .068.37c.097.198.268.413.435.544.19.148.365.572.608.631.177.042.384-.104.543-.143.18-.043.397.01.571-.053.222-.079.127-.337.288-.45.104-.074.287-.01.406-.051a.607.607 0 0 0 .376-.46c.016-.082.01-.145.039-.221.039-.103.111-.16.09-.293-.01-.062-.052-.12-.064-.187-.022-.114.002-.224 0-.337-.003-.2.017-.379-.078-.55-.38-.688-1.236-.929-1.975-.789-.18.034-.287.126-.442.207-.17.088-.139.166-.318.224-.081.026-.216.124-.215.224.001.115.005.051.012.169-.021.011-.021-.005-.03-.025M31.137-33.39a.247.247 0 0 1-.026.19c-.053.101-.112.063-.165.128a.638.638 0 0 0-.079.362c-.169.058-.009.227-.015.35-.002.05-.041.105-.045.161a.764.764 0 0 0 .068.37c.097.198.268.413.435.544.19.148.365.572.608.631.177.042.384-.104.543-.143.18-.043.397.01.571-.053.222-.079.127-.337.288-.45.104-.074.287-.01.406-.051a.607.607 0 0 0 .376-.46c.016-.082.01-.145.039-.221.039-.103.111-.16.09-.293-.01-.062-.052-.12-.064-.187-.022-.114.002-.224 0-.337-.003-.2.017-.379-.078-.55-.38-.688-1.236-.929-1.975-.789-.18.034-.287.126-.442.207-.17.088-.139.166-.318.224-.081.026-.216.124-.215.224.001.115.005.051.012.169-.021.011-.021-.005-.03-.025M23.477-33.39a.247.247 0 0 1-.026.19c-.053.101-.112.063-.165.128a.638.638 0 0 0-.079.362c-.169.058-.009.227-.015.35-.002.05-.041.105-.045.161a.764.764 0 0 0 .068.37c.097.198.268.413.435.544.19.148.365.572.608.631.177.042.384-.104.543-.143.18-.043.397.01.571-.053.222-.079.127-.337.288-.45.104-.074.287-.01.406-.051a.607.607 0 0 0 .376-.46c.016-.082.01-.145.039-.221.039-.103.111-.16.09-.293-.01-.062-.052-.12-.064-.187-.022-.114.002-.224 0-.337-.003-.2.017-.379-.078-.55-.38-.688-1.236-.929-1.975-.789-.18.034-.287.126-.442.207-.17.088-.139.166-.318.224-.081.026-.216.124-.215.224.001.115.005.051.012.169-.021.011-.021-.005-.03-.025M15.816-33.39a.247.247 0 0 1-.026.19c-.053.101-.112.063-.165.128a.638.638 0 0 0-.079.362c-.169.058-.009.227-.015.35-.002.05-.041.105-.045.161a.764.764 0 0 0 .068.37c.097.198.268.413.435.544.19.148.365.572.608.631.177.042.384-.104.543-.143.18-.043.397.01.571-.053.222-.079.127-.337.288-.45.104-.074.287-.01.406-.051a.607.607 0 0 0 .376-.46c.016-.082.01-.145.039-.221.039-.103.111-.16.09-.293-.01-.062-.052-.12-.064-.187-.022-.114.002-.224 0-.337-.003-.2.017-.379-.078-.55-.38-.688-1.236-.929-1.975-.789-.18.034-.287.126-.442.207-.17.088-.139.166-.318.224-.081.026-.216.124-.215.224.001.115.005.051.012.169-.021.011-.021-.005-.03-.025M8.156-33.39a.247.247 0 0 1-.026.19c-.053.101-.112.063-.165.128a.638.638 0 0 0-.079.362c-.169.058-.009.227-.015.35-.002.05-.041.105-.045.161a.764.764 0 0 0 .068.37c.097.198.268.413.435.544.19.148.365.572.608.631.177.042.384-.104.543-.143.18-.043.397.01.571-.053.222-.079.127-.337.288-.45.104-.074.287-.01.406-.051a.607.607 0 0 0 .376-.46c.016-.082.01-.145.039-.221.039-.103.111-.16.09-.293-.01-.062-.052-.12-.064-.187-.022-.114.002-.224 0-.337-.003-.2.017-.379-.078-.55-.38-.688-1.236-.929-1.975-.789-.18.034-.287.126-.442.207-.17.088-.139.166-.318.224-.081.026-.216.124-.215.224.001.115.005.051.012.169-.021.011-.021-.005-.03-.025M.495-33.39a.247.247 0 0 1-.026.19c-.053.101-.112.063-.165.128a.638.638 0 0 0-.079.362c-.169.058-.01.227-.015.35-.002.05-.041.105-.045.161a.764.764 0 0 0 .068.37c.097.198.268.413.435.544.19.148.365.572.608.631.177.042.384-.104.543-.143.18-.043.397.01.571-.053.222-.079.127-.337.288-.45.104-.074.287-.01.406-.051a.607.607 0 0 0 .376-.46c.016-.082.01-.145.039-.221.039-.103.111-.16.09-.293-.01-.062-.052-.12-.064-.187-.022-.114.002-.224 0-.337-.003-.2.017-.379-.078-.55-.38-.688-1.236-.929-1.975-.789-.18.034-.287.126-.442.207-.17.088-.139.166-.318.224-.081.026-.216.124-.215.224.003.117.006.053.013.171-.021.011-.021-.005-.03-.025"/></g><g><path d="M69.439-25.736a.247.247 0 0 1-.026.19c-.053.101-.112.063-.165.128a.638.638 0 0 0-.079.362c-.169.058-.01.227-.015.35-.002.05-.041.105-.045.161a.764.764 0 0 0 .068.37c.097.198.268.413.435.544.19.148.365.572.608.631.177.042.384-.104.543-.143.18-.043.397.01.571-.053.222-.079.127-.337.288-.45.104-.074.287-.01.406-.051a.607.607 0 0 0 .376-.46c.016-.082.01-.145.039-.221.039-.103.111-.16.09-.293-.01-.062-.052-.12-.064-.187-.022-.114.002-.224 0-.337-.003-.2.017-.379-.078-.55-.38-.688-1.236-.929-1.975-.789-.18.034-.287.126-.442.207-.17.088-.139.166-.318.224-.081.026-.216.124-.215.224.001.115.005.051.012.169-.021.011-.021-.005-.03-.025M61.778-25.736a.247.247 0 0 1-.026.19c-.053.101-.112.063-.165.128a.638.638 0 0 0-.079.362c-.169.058-.009.227-.015.35-.002.05-.041.105-.045.161a.764.764 0 0 0 .068.37c.097.198.268.413.435.544.19.148.365.572.608.631.177.042.384-.104.543-.143.18-.043.397.01.571-.053.222-.079.127-.337.288-.45.104-.074.287-.01.406-.051a.607.607 0 0 0 .376-.46c.016-.082.01-.145.039-.221.039-.103.111-.16.09-.293-.01-.062-.052-.12-.064-.187-.022-.114.002-.224 0-.337-.003-.2.017-.379-.078-.55-.38-.688-1.236-.929-1.975-.789-.18.034-.287.126-.442.207-.17.088-.139.166-.318.224-.081.026-.216.124-.215.224.001.115.005.051.012.169-.021.011-.021-.005-.03-.025M54.118-25.736a.247.247 0 0 1-.026.19c-.053.101-.112.063-.165.128a.638.638 0 0 0-.079.362c-.169.058-.009.227-.015.35-.002.05-.041.105-.045.161a.764.764 0 0 0 .068.37c.097.198.268.413.435.544.19.148.365.572.608.631.177.042.384-.104.543-.143.18-.043.397.01.571-.053.222-.079.127-.337.288-.45.104-.074.287-.01.406-.051a.607.607 0 0 0 .376-.46c.016-.082.01-.145.039-.221.039-.103.111-.16.09-.293-.01-.062-.052-.12-.064-.187-.022-.114.002-.224 0-.337-.003-.2.017-.379-.078-.55-.38-.688-1.236-.929-1.975-.789-.18.034-.287.126-.442.207-.17.088-.139.166-.318.224-.081.026-.216.124-.215.224.001.115.005.051.012.169-.021.011-.021-.005-.03-.025M46.458-25.736a.247.247 0 0 1-.026.19c-.053.101-.112.063-.165.128a.638.638 0 0 0-.079.362c-.169.058-.009.227-.015.35-.002.05-.041.105-.045.161a.764.764 0 0 0 .068.37c.097.198.268.413.435.544.19.148.365.572.608.631.177.042.384-.104.543-.143.18-.043.397.01.571-.053.222-.079.127-.337.288-.45.104-.074.287-.01.406-.051a.607.607 0 0 0 .376-.46c.016-.082.01-.145.039-.221.039-.103.111-.16.09-.293-.01-.062-.052-.12-.064-.187-.022-.114.002-.224 0-.337-.003-.2.017-.379-.078-.55-.38-.688-1.236-.929-1.975-.789-.18.034-.287.126-.442.207-.17.088-.139.166-.318.224-.081.026-.216.124-.215.224.001.115.005.051.012.169-.021.011-.021-.005-.03-.025M38.797-25.736a.247.247 0 0 1-.026.19c-.053.101-.112.063-.165.128a.638.638 0 0 0-.079.362c-.169.058-.009.227-.015.35-.002.05-.041.105-.045.161a.764.764 0 0 0 .068.37c.097.198.268.413.435.544.19.148.365.572.608.631.177.042.384-.104.543-.143.18-.043.397.01.571-.053.222-.079.127-.337.288-.45.104-.074.287-.01.406-.051a.607.607 0 0 0 .376-.46c.016-.082.01-.145.039-.221.039-.103.111-.16.09-.293-.01-.062-.052-.12-.064-.187-.022-.114.002-.224 0-.337-.003-.2.017-.379-.078-.55-.38-.688-1.236-.929-1.975-.789-.18.034-.287.126-.442.207-.17.088-.139.166-.318.224-.081.026-.216.124-.215.224.001.115.005.051.012.169-.021.011-.021-.005-.03-.025M31.137-25.736a.247.247 0 0 1-.026.19c-.053.101-.112.063-.165.128a.638.638 0 0 0-.079.362c-.169.058-.009.227-.015.35-.002.05-.041.105-.045.161a.764.764 0 0 0 .068.37c.097.198.268.413.435.544.19.148.365.572.608.631.177.042.384-.104.543-.143.18-.043.397.01.571-.053.222-.079.127-.337.288-.45.104-.074.287-.01.406-.051a.607.607 0 0 0 .376-.46c.016-.082.01-.145.039-.221.039-.103.111-.16.09-.293-.01-.062-.052-.12-.064-.187-.022-.114.002-.224 0-.337-.003-.2.017-.379-.078-.55-.38-.688-1.236-.929-1.975-.789-.18.034-.287.126-.442.207-.17.088-.139.166-.318.224-.081.026-.216.124-.215.224.001.115.005.051.012.169-.021.011-.021-.005-.03-.025M23.477-25.736a.247.247 0 0 1-.026.19c-.053.101-.112.063-.165.128a.638.638 0 0 0-.079.362c-.169.058-.009.227-.015.35-.002.05-.041.105-.045.161a.764.764 0 0 0 .068.37c.097.198.268.413.435.544.19.148.365.572.608.631.177.042.384-.104.543-.143.18-.043.397.01.571-.053.222-.079.127-.337.288-.45.104-.074.287-.01.406-.051a.607.607 0 0 0 .376-.46c.016-.082.01-.145.039-.221.039-.103.111-.16.09-.293-.01-.062-.052-.12-.064-.187-.022-.114.002-.224 0-.337-.003-.2.017-.379-.078-.55-.38-.688-1.236-.929-1.975-.789-.18.034-.287.126-.442.207-.17.088-.139.166-.318.224-.081.026-.216.124-.215.224.001.115.005.051.012.169-.021.011-.021-.005-.03-.025M15.816-25.736a.247.247 0 0 1-.026.19c-.053.101-.112.063-.165.128a.638.638 0 0 0-.079.362c-.169.058-.009.227-.015.35-.002.05-.041.105-.045.161a.764.764 0 0 0 .068.37c.097.198.268.413.435.544.19.148.365.572.608.631.177.042.384-.104.543-.143.18-.043.397.01.571-.053.222-.079.127-.337.288-.45.104-.074.287-.01.406-.051a.607.607 0 0 0 .376-.46c.016-.082.01-.145.039-.221.039-.103.111-.16.09-.293-.01-.062-.052-.12-.064-.187-.022-.114.002-.224 0-.337-.003-.2.017-.379-.078-.55-.38-.688-1.236-.929-1.975-.789-.18.034-.287.126-.442.207-.17.088-.139.166-.318.224-.081.026-.216.124-.215.224.001.115.005.051.012.169-.021.011-.021-.005-.03-.025M8.156-25.736a.247.247 0 0 1-.026.19c-.053.101-.112.063-.165.128a.638.638 0 0 0-.079.362c-.169.058-.009.227-.015.35-.002.05-.041.105-.045.161a.764.764 0 0 0 .068.37c.097.198.268.413.435.544.19.148.365.572.608.631.177.042.384-.104.543-.143.18-.043.397.01.571-.053.222-.079.127-.337.288-.45.104-.074.287-.01.406-.051a.607.607 0 0 0 .376-.46c.016-.082.01-.145.039-.221.039-.103.111-.16.09-.293-.01-.062-.052-.12-.064-.187-.022-.114.002-.224 0-.337-.003-.2.017-.379-.078-.55-.38-.688-1.236-.929-1.975-.789-.18.034-.287.126-.442.207-.17.088-.139.166-.318.224-.081.026-.216.124-.215.224.001.115.005.051.012.169-.021.011-.021-.005-.03-.025M.495-25.736a.247.247 0 0 1-.026.19c-.053.101-.112.063-.165.128a.638.638 0 0 0-.079.362c-.169.058-.01.227-.015.35-.002.05-.041.105-.045.161a.764.764 0 0 0 .068.37c.097.198.268.413.435.544.19.148.365.572.608.631.177.042.384-.104.543-.143.18-.043.397.01.571-.053.222-.079.127-.337.288-.45.104-.074.287-.01.406-.051a.607.607 0 0 0 .376-.46c.016-.082.01-.145.039-.221.039-.103.111-.16.09-.293-.01-.062-.052-.12-.064-.187-.022-.114.002-.224 0-.337-.003-.2.017-.379-.078-.55-.38-.688-1.236-.929-1.975-.789-.18.034-.287.126-.442.207-.17.088-.139.166-.318.224-.081.026-.216.124-.215.224.001.115.005.051.012.169-.021.011-.021-.005-.03-.025"/></g><g><path d="M69.439-18.084a.247.247 0 0 1-.026.19c-.053.101-.112.063-.165.128a.638.638 0 0 0-.079.362c-.169.058-.01.227-.015.35-.002.05-.041.105-.045.161a.764.764 0 0 0 .068.37c.097.198.268.413.435.544.19.148.365.572.608.631.177.042.384-.104.543-.143.18-.043.397.01.571-.053.222-.079.127-.337.288-.45.104-.074.287-.01.406-.051a.607.607 0 0 0 .376-.46c.016-.082.01-.145.039-.221.039-.103.111-.16.09-.293-.01-.062-.052-.12-.064-.187-.022-.114.002-.224 0-.337-.003-.2.017-.379-.078-.55-.38-.688-1.236-.929-1.975-.789-.18.034-.287.126-.442.207-.17.088-.139.166-.318.224-.081.026-.216.124-.215.224.001.115.005.051.012.169-.021.011-.021-.005-.03-.025M61.778-18.084a.247.247 0 0 1-.026.19c-.053.101-.112.063-.165.128a.638.638 0 0 0-.079.362c-.169.058-.009.227-.015.35-.002.05-.041.105-.045.161a.764.764 0 0 0 .068.37c.097.198.268.413.435.544.19.148.365.572.608.631.177.042.384-.104.543-.143.18-.043.397.01.571-.053.222-.079.127-.337.288-.45.104-.074.287-.01.406-.051a.607.607 0 0 0 .376-.46c.016-.082.01-.145.039-.221.039-.103.111-.16.09-.293-.01-.062-.052-.12-.064-.187-.022-.114.002-.224 0-.337-.003-.2.017-.379-.078-.55-.38-.688-1.236-.929-1.975-.789-.18.034-.287.126-.442.207-.17.088-.139.166-.318.224-.081.026-.216.124-.215.224.001.115.005.051.012.169-.021.011-.021-.005-.03-.025M54.118-18.084a.247.247 0 0 1-.026.19c-.053.101-.112.063-.165.128a.638.638 0 0 0-.079.362c-.169.058-.009.227-.015.35-.002.05-.041.105-.045.161a.764.764 0 0 0 .068.37c.097.198.268.413.435.544.19.148.365.572.608.631.177.042.384-.104.543-.143.18-.043.397.01.571-.053.222-.079.127-.337.288-.45.104-.074.287-.01.406-.051a.607.607 0 0 0 .376-.46c.016-.082.01-.145.039-.221.039-.103.111-.16.09-.293-.01-.062-.052-.12-.064-.187-.022-.114.002-.224 0-.337-.003-.2.017-.379-.078-.55-.38-.688-1.236-.929-1.975-.789-.18.034-.287.126-.442.207-.17.088-.139.166-.318.224-.081.026-.216.124-.215.224.001.115.005.051.012.169-.021.011-.021-.005-.03-.025M46.458-18.084a.247.247 0 0 1-.026.19c-.053.101-.112.063-.165.128a.638.638 0 0 0-.079.362c-.169.058-.009.227-.015.35-.002.05-.041.105-.045.161a.764.764 0 0 0 .068.37c.097.198.268.413.435.544.19.148.365.572.608.631.177.042.384-.104.543-.143.18-.043.397.01.571-.053.222-.079.127-.337.288-.45.104-.074.287-.01.406-.051a.607.607 0 0 0 .376-.46c.016-.082.01-.145.039-.221.039-.103.111-.16.09-.293-.01-.062-.052-.12-.064-.187-.022-.114.002-.224 0-.337-.003-.2.017-.379-.078-.55-.38-.688-1.236-.929-1.975-.789-.18.034-.287.126-.442.207-.17.088-.139.166-.318.224-.081.026-.216.124-.215.224.001.115.005.051.012.169-.021.011-.021-.005-.03-.025M38.797-18.084a.247.247 0 0 1-.026.19c-.053.101-.112.063-.165.128a.638.638 0 0 0-.079.362c-.169.058-.009.227-.015.35-.002.05-.041.105-.045.161a.764.764 0 0 0 .068.37c.097.198.268.413.435.544.19.148.365.572.608.631.177.042.384-.104.543-.143.18-.043.397.01.571-.053.222-.079.127-.337.288-.45.104-.074.287-.01.406-.051a.607.607 0 0 0 .376-.46c.016-.082.01-.145.039-.221.039-.103.111-.16.09-.293-.01-.062-.052-.12-.064-.187-.022-.114.002-.224 0-.337-.003-.2.017-.379-.078-.55-.38-.688-1.236-.929-1.975-.789-.18.034-.287.126-.442.207-.17.088-.139.166-.318.224-.081.026-.216.124-.215.224.001.115.005.051.012.169-.021.011-.021-.005-.03-.025M31.137-18.084a.247.247 0 0 1-.026.19c-.053.101-.112.063-.165.128a.638.638 0 0 0-.079.362c-.169.058-.009.227-.015.35-.002.05-.041.105-.045.161a.764.764 0 0 0 .068.37c.097.198.268.413.435.544.19.148.365.572.608.631.177.042.384-.104.543-.143.18-.043.397.01.571-.053.222-.079.127-.337.288-.45.104-.074.287-.01.406-.051a.607.607 0 0 0 .376-.46c.016-.082.01-.145.039-.221.039-.103.111-.16.09-.293-.01-.062-.052-.12-.064-.187-.022-.114.002-.224 0-.337-.003-.2.017-.379-.078-.55-.38-.688-1.236-.929-1.975-.789-.18.034-.287.126-.442.207-.17.088-.139.166-.318.224-.081.026-.216.124-.215.224.001.115.005.051.012.169-.021.011-.021-.005-.03-.025M23.477-18.084a.247.247 0 0 1-.026.19c-.053.101-.112.063-.165.128a.638.638 0 0 0-.079.362c-.169.058-.009.227-.015.35-.002.05-.041.105-.045.161a.764.764 0 0 0 .068.37c.097.198.268.413.435.544.19.148.365.572.608.631.177.042.384-.104.543-.143.18-.043.397.01.571-.053.222-.079.127-.337.288-.45.104-.074.287-.01.406-.051a.607.607 0 0 0 .376-.46c.016-.082.01-.145.039-.221.039-.103.111-.16.09-.293-.01-.062-.052-.12-.064-.187-.022-.114.002-.224 0-.337-.003-.2.017-.379-.078-.55-.38-.688-1.236-.929-1.975-.789-.18.034-.287.126-.442.207-.17.088-.139.166-.318.224-.081.026-.216.124-.215.224.001.115.005.051.012.169-.021.011-.021-.005-.03-.025M15.816-18.084a.247.247 0 0 1-.026.19c-.053.101-.112.063-.165.128a.638.638 0 0 0-.079.362c-.169.058-.009.227-.015.35-.002.05-.041.105-.045.161a.764.764 0 0 0 .068.37c.097.198.268.413.435.544.19.148.365.572.608.631.177.042.384-.104.543-.143.18-.043.397.01.571-.053.222-.079.127-.337.288-.45.104-.074.287-.01.406-.051a.607.607 0 0 0 .376-.46c.016-.082.01-.145.039-.221.039-.103.111-.16.09-.293-.01-.062-.052-.12-.064-.187-.022-.114.002-.224 0-.337-.003-.2.017-.379-.078-.55-.38-.688-1.236-.929-1.975-.789-.18.034-.287.126-.442.207-.17.088-.139.166-.318.224-.081.026-.216.124-.215.224.001.115.005.051.012.169-.021.011-.021-.005-.03-.025M8.156-18.084a.247.247 0 0 1-.026.19c-.053.101-.112.063-.165.128a.638.638 0 0 0-.079.362c-.169.058-.009.227-.015.35-.002.05-.041.105-.045.161a.764.764 0 0 0 .068.37c.097.198.268.413.435.544.19.148.365.572.608.631.177.042.384-.104.543-.143.18-.043.397.01.571-.053.222-.079.127-.337.288-.45.104-.074.287-.01.406-.051a.607.607 0 0 0 .376-.46c.016-.082.01-.145.039-.221.039-.103.111-.16.09-.293-.01-.062-.052-.12-.064-.187-.022-.114.002-.224 0-.337-.003-.2.017-.379-.078-.55-.38-.688-1.236-.929-1.975-.789-.18.034-.287.126-.442.207-.17.088-.139.166-.318.224-.081.026-.216.124-.215.224.001.115.005.051.012.169-.021.011-.021-.005-.03-.025M.495-18.084a.247.247 0 0 1-.026.19c-.053.101-.112.063-.165.128a.638.638 0 0 0-.079.362c-.169.058-.01.227-.015.35-.002.05-.041.105-.045.161a.764.764 0 0 0 .068.37c.097.198.268.413.435.544.19.148.365.572.608.631.177.042.384-.104.543-.143.18-.043.397.01.571-.053.222-.079.127-.337.288-.45.104-.074.287-.01.406-.051a.607.607 0 0 0 .376-.46c.016-.082.01-.145.039-.221.039-.103.111-.16.09-.293-.01-.062-.052-.12-.064-.187-.022-.114.002-.224 0-.337-.003-.2.017-.379-.078-.55-.38-.688-1.236-.929-1.975-.789-.18.034-.287.126-.442.207-.17.088-.139.166-.318.224-.081.026-.216.124-.215.224.003.117.006.052.013.17-.021.011-.021-.005-.03-.025"/></g><g><path d="M69.439-10.431a.247.247 0 0 1-.026.19c-.053.101-.112.063-.165.128a.638.638 0 0 0-.079.362c-.169.059-.01.228-.015.351-.002.05-.041.105-.045.161a.764.764 0 0 0 .068.37c.097.198.268.413.435.544.19.148.365.572.608.631.177.042.384-.104.543-.143.18-.043.397.01.571-.053.222-.079.127-.337.288-.45.104-.074.287-.01.406-.051a.607.607 0 0 0 .376-.46c.016-.082.01-.145.039-.221.039-.103.111-.16.09-.293-.01-.062-.052-.12-.064-.187-.022-.114.002-.224 0-.337-.003-.2.017-.379-.078-.55-.38-.688-1.236-.929-1.975-.789-.18.034-.287.126-.442.207-.17.088-.139.166-.318.224-.081.026-.216.124-.215.224.001.115.005.051.012.169-.021.011-.021-.005-.03-.025M61.778-10.431a.247.247 0 0 1-.026.19c-.053.101-.112.063-.165.128a.638.638 0 0 0-.079.362c-.169.058-.009.227-.015.35-.002.05-.041.105-.045.161a.764.764 0 0 0 .068.37c.097.198.268.413.435.544.19.148.365.572.608.631.177.042.384-.104.543-.143.18-.043.397.01.571-.053.222-.079.127-.337.288-.45.104-.074.287-.01.406-.051a.607.607 0 0 0 .376-.46c.016-.082.01-.145.039-.221.039-.103.111-.16.09-.293-.01-.062-.052-.12-.064-.187-.022-.114.002-.224 0-.337-.003-.2.017-.379-.078-.55-.38-.688-1.236-.929-1.975-.789-.18.034-.287.126-.442.207-.17.088-.139.166-.318.224-.081.026-.216.124-.215.224.001.115.005.051.012.169-.021.011-.021-.005-.03-.025M54.118-10.431a.247.247 0 0 1-.026.19c-.053.101-.112.063-.165.128a.638.638 0 0 0-.079.362c-.169.058-.009.227-.015.35-.002.05-.041.105-.045.161a.764.764 0 0 0 .068.37c.097.198.268.413.435.544.19.148.365.572.608.631.177.042.384-.104.543-.143.18-.043.397.01.571-.053.222-.079.127-.337.288-.45.104-.074.287-.01.406-.051a.607.607 0 0 0 .376-.46c.016-.082.01-.145.039-.221.039-.103.111-.16.09-.293-.01-.062-.052-.12-.064-.187-.022-.114.002-.224 0-.337-.003-.2.017-.379-.078-.55-.38-.688-1.236-.929-1.975-.789-.18.034-.287.126-.442.207-.17.088-.139.166-.318.224-.081.026-.216.124-.215.224.001.115.005.051.012.169-.021.011-.021-.005-.03-.025M46.458-10.431a.247.247 0 0 1-.026.19c-.053.101-.112.063-.165.128a.638.638 0 0 0-.079.362c-.169.058-.009.227-.015.35-.002.05-.041.105-.045.161a.764.764 0 0 0 .068.37c.097.198.268.413.435.544.19.148.365.572.608.631.177.042.384-.104.543-.143.18-.043.397.01.571-.053.222-.079.127-.337.288-.45.104-.074.287-.01.406-.051a.607.607 0 0 0 .376-.46c.016-.082.01-.145.039-.221.039-.103.111-.16.09-.293-.01-.062-.052-.12-.064-.187-.022-.114.002-.224 0-.337-.003-.2.017-.379-.078-.55-.38-.688-1.236-.929-1.975-.789-.18.034-.287.126-.442.207-.17.088-.139.166-.318.224-.081.026-.216.124-.215.224.001.115.005.051.012.169-.021.011-.021-.005-.03-.025M38.797-10.431a.247.247 0 0 1-.026.19c-.053.101-.112.063-.165.128a.638.638 0 0 0-.079.362c-.169.058-.009.227-.015.35-.002.05-.041.105-.045.161a.764.764 0 0 0 .068.37c.097.198.268.413.435.544.19.148.365.572.608.631.177.042.384-.104.543-.143.18-.043.397.01.571-.053.222-.079.127-.337.288-.45.104-.074.287-.01.406-.051a.607.607 0 0 0 .376-.46c.016-.082.01-.145.039-.221.039-.103.111-.16.09-.293-.01-.062-.052-.12-.064-.187-.022-.114.002-.224 0-.337-.003-.2.017-.379-.078-.55-.38-.688-1.236-.929-1.975-.789-.18.034-.287.126-.442.207-.17.088-.139.166-.318.224-.081.026-.216.124-.215.224.001.115.005.051.012.169-.021.011-.021-.005-.03-.025M31.137-10.431a.247.247 0 0 1-.026.19c-.053.101-.112.063-.165.128a.638.638 0 0 0-.079.362c-.169.058-.009.227-.015.35-.002.05-.041.105-.045.161a.764.764 0 0 0 .068.37c.097.198.268.413.435.544.19.148.365.572.608.631.177.042.384-.104.543-.143.18-.043.397.01.571-.053.222-.079.127-.337.288-.45.104-.074.287-.01.406-.051a.607.607 0 0 0 .376-.46c.016-.082.01-.145.039-.221.039-.103.111-.16.09-.293-.01-.062-.052-.12-.064-.187-.022-.114.002-.224 0-.337-.003-.2.017-.379-.078-.55-.38-.688-1.236-.929-1.975-.789-.18.034-.287.126-.442.207-.17.088-.139.166-.318.224-.081.026-.216.124-.215.224.001.115.005.051.012.169-.021.011-.021-.005-.03-.025M23.477-10.431a.247.247 0 0 1-.026.19c-.053.101-.112.063-.165.128a.638.638 0 0 0-.079.362c-.169.058-.009.227-.015.35-.002.05-.041.105-.045.161a.764.764 0 0 0 .068.37c.097.198.268.413.435.544.19.148.365.572.608.631.177.042.384-.104.543-.143.18-.043.397.01.571-.053.222-.079.127-.337.288-.45.104-.074.287-.01.406-.051a.607.607 0 0 0 .376-.46c.016-.082.01-.145.039-.221.039-.103.111-.16.09-.293-.01-.062-.052-.12-.064-.187-.022-.114.002-.224 0-.337-.003-.2.017-.379-.078-.55-.38-.688-1.236-.929-1.975-.789-.18.034-.287.126-.442.207-.17.088-.139.166-.318.224-.081.026-.216.124-.215.224.001.115.005.051.012.169-.021.011-.021-.005-.03-.025M15.816-10.431a.247.247 0 0 1-.026.19c-.053.101-.112.063-.165.128a.638.638 0 0 0-.079.362c-.169.058-.009.227-.015.35-.002.05-.041.105-.045.161a.764.764 0 0 0 .068.37c.097.198.268.413.435.544.19.148.365.572.608.631.177.042.384-.104.543-.143.18-.043.397.01.571-.053.222-.078.128-.336.289-.449.104-.074.287-.01.406-.051a.607.607 0 0 0 .376-.46c.016-.082.01-.145.039-.221.039-.103.111-.16.09-.293-.01-.062-.052-.12-.064-.187-.022-.114.002-.224 0-.337-.003-.2.017-.379-.078-.55-.38-.688-1.236-.929-1.975-.789-.18.034-.287.126-.442.207-.17.088-.139.166-.318.224-.081.026-.216.124-.215.224.001.115.005.051.012.169-.021.011-.021-.005-.03-.025M8.156-10.431a.247.247 0 0 1-.026.19c-.053.101-.112.063-.165.128a.641.641 0 0 0-.079.363c-.169.058-.01.227-.015.35-.003.049-.041.105-.045.161a.764.764 0 0 0 .068.37c.097.198.268.413.435.544.19.148.365.572.608.631.177.042.384-.105.543-.143.18-.043.397.01.571-.053.222-.079.127-.337.288-.45.104-.074.287-.01.406-.051a.607.607 0 0 0 .376-.46c.016-.082.01-.145.039-.221.039-.103.111-.16.09-.293-.01-.062-.052-.12-.064-.187-.022-.114.002-.224 0-.337-.003-.2.017-.379-.078-.55-.38-.688-1.236-.929-1.975-.789-.18.034-.287.126-.442.207-.17.088-.139.166-.318.224-.081.026-.216.124-.215.224.001.115.005.051.012.169-.021.011-.021-.005-.03-.025M.495-10.431a.247.247 0 0 1-.026.19c-.053.101-.112.063-.165.128a.641.641 0 0 0-.079.363c-.169.058-.01.227-.015.35-.002.05-.041.105-.045.161a.764.764 0 0 0 .068.37c.097.198.268.413.435.544.19.148.365.572.608.631.178.042.384-.105.543-.143.181-.043.398.01.572-.053.222-.079.127-.337.288-.45.104-.074.287-.01.406-.051a.607.607 0 0 0 .376-.46c.016-.082.01-.144.039-.22.039-.103.111-.16.09-.293-.01-.062-.052-.12-.064-.187-.022-.114.002-.224 0-.337-.003-.2.017-.379-.078-.55-.38-.688-1.236-.929-1.975-.789-.18.034-.287.126-.442.207-.17.088-.139.166-.318.224-.081.026-.216.124-.215.224.001.115.005.051.012.169-.021.011-.021-.005-.03-.025"/></g></g><g fill="#FFF"><path d="M69.439-2.778a.242.242 0 0 1-.026.19c-.052.101-.113.063-.165.128a.63.63 0 0 0-.079.362c-.169.058-.01.227-.015.35-.002.05-.041.105-.045.161a.764.764 0 0 0 .068.37c.097.198.268.413.435.544.19.148.365.572.608.631.177.042.384-.104.543-.143.18-.043.397.01.571-.053.222-.079.127-.337.288-.45.104-.074.287-.01.406-.051.2-.07.339-.263.376-.46.016-.082.01-.145.039-.221.038-.103.111-.16.09-.293-.01-.062-.051-.12-.064-.187-.021-.114.002-.224 0-.337-.003-.2.017-.379-.078-.55-.38-.688-1.236-.929-1.975-.789-.18.034-.287.126-.442.207-.17.088-.139.166-.318.224-.081.026-.215.124-.215.224.002.115.005.051.012.169-.021.011-.021-.005-.03-.025M61.778-2.778a.247.247 0 0 1-.026.19c-.052.101-.112.063-.165.128a.638.638 0 0 0-.079.362c-.169.058-.01.227-.015.35-.002.05-.041.105-.045.161a.764.764 0 0 0 .068.37c.097.198.268.413.435.544.19.148.365.572.608.631.178.042.384-.104.544-.143.18-.043.397.01.571-.053.222-.079.127-.337.288-.45.104-.074.287-.01.406-.051a.607.607 0 0 0 .376-.46c.016-.082.01-.145.039-.221.039-.103.111-.16.09-.293-.01-.062-.052-.12-.064-.187-.022-.114.002-.224 0-.337-.003-.2.017-.379-.078-.55-.38-.688-1.236-.929-1.975-.789-.18.034-.287.126-.442.207-.17.088-.139.166-.318.224-.081.028-.216.125-.215.225.001.115.005.051.012.169-.021.011-.021-.005-.03-.025M54.118-2.778a.247.247 0 0 1-.026.19c-.052.101-.112.063-.165.128a.638.638 0 0 0-.079.362c-.169.058-.01.227-.015.35-.002.05-.041.105-.045.161a.764.764 0 0 0 .068.37c.097.198.268.413.435.544.19.148.365.572.608.631.178.042.384-.104.543-.143.18-.043.397.01.571-.053.222-.079.127-.337.288-.45.104-.074.287-.01.406-.051a.607.607 0 0 0 .376-.46c.016-.082.01-.145.039-.221.039-.103.111-.16.09-.293-.01-.062-.052-.12-.064-.187-.022-.114.002-.224 0-.337-.003-.2.017-.379-.078-.55-.38-.688-1.236-.929-1.975-.789-.18.034-.287.126-.442.207-.17.088-.139.166-.318.224-.08.028-.215.125-.214.225.001.115.005.051.012.169-.021.011-.021-.005-.03-.025M46.458-2.778a.247.247 0 0 1-.026.19c-.053.101-.112.063-.165.128a.638.638 0 0 0-.079.362c-.169.058-.01.227-.015.35-.002.05-.041.105-.045.161a.764.764 0 0 0 .068.37c.097.198.268.413.435.544.19.148.365.572.608.631.177.042.384-.104.543-.143.18-.043.397.01.571-.053.222-.079.127-.337.288-.45.104-.074.287-.01.406-.051a.607.607 0 0 0 .376-.46c.016-.082.01-.145.039-.221.039-.103.111-.16.09-.293-.01-.062-.052-.12-.064-.187-.022-.114.002-.224 0-.337-.003-.2.017-.379-.078-.55-.38-.688-1.236-.929-1.975-.789-.18.034-.287.126-.442.207-.17.088-.139.166-.318.224-.081.028-.216.125-.215.225.001.115.005.051.012.169-.021.011-.021-.005-.03-.025M38.797-2.778a.247.247 0 0 1-.026.19c-.053.101-.112.063-.165.128a.638.638 0 0 0-.079.362c-.169.058-.01.227-.015.35-.002.05-.041.105-.045.161a.764.764 0 0 0 .068.37c.097.198.268.413.435.544.19.148.365.572.608.631.178.042.384-.104.544-.143.18-.043.397.01.571-.053.222-.079.127-.337.288-.45.104-.074.287-.01.406-.051a.607.607 0 0 0 .376-.46c.016-.082.01-.145.039-.221.039-.103.111-.16.09-.293-.01-.062-.052-.12-.064-.187-.022-.114.002-.224 0-.337-.003-.2.017-.379-.078-.55-.38-.688-1.236-.929-1.975-.789-.18.034-.287.126-.442.207-.17.088-.139.166-.318.224-.081.028-.216.125-.215.225.001.115.005.051.012.169-.021.011-.021-.005-.03-.025M31.137-2.778a.247.247 0 0 1-.026.19c-.053.101-.112.063-.165.128a.638.638 0 0 0-.079.362c-.169.058-.01.227-.015.35-.002.05-.041.105-.045.161a.764.764 0 0 0 .068.37c.097.198.268.413.435.544.19.148.365.572.608.631.177.042.384-.104.543-.143.18-.043.397.01.571-.053.222-.079.127-.337.288-.45.104-.074.287-.01.406-.051a.607.607 0 0 0 .376-.46c.016-.082.01-.145.039-.221.039-.103.111-.16.09-.293-.01-.062-.052-.12-.064-.187-.022-.114.002-.224 0-.337-.003-.2.017-.379-.078-.55-.38-.688-1.236-.929-1.975-.789-.18.034-.287.126-.442.207-.17.088-.139.166-.318.224-.081.028-.215.125-.214.225.001.115.005.051.012.169-.021.011-.021-.005-.03-.025M23.477-2.778a.247.247 0 0 1-.026.19c-.053.101-.112.063-.165.128a.638.638 0 0 0-.079.362c-.169.058-.01.227-.015.35-.002.05-.041.105-.045.161a.764.764 0 0 0 .068.37c.097.198.268.413.435.544.19.148.365.572.608.631.177.042.384-.104.543-.143.18-.043.397.01.571-.053.222-.079.127-.337.288-.45.104-.074.287-.01.406-.051a.607.607 0 0 0 .376-.46c.016-.082.01-.145.039-.221.039-.103.111-.16.09-.293-.01-.062-.052-.12-.064-.187-.022-.114.002-.224 0-.337-.003-.2.017-.379-.078-.55-.38-.688-1.236-.929-1.975-.789-.18.034-.287.126-.442.207-.17.088-.139.166-.318.224-.081.026-.216.124-.215.224.001.115.005.051.012.169-.021.011-.021-.005-.03-.025M15.816-2.778a.247.247 0 0 1-.026.19c-.053.101-.112.063-.165.128a.638.638 0 0 0-.079.362c-.169.058-.01.227-.015.35-.002.05-.041.105-.045.161a.764.764 0 0 0 .068.37c.097.198.268.413.435.544.19.148.365.572.608.631.177.042.384-.104.543-.143.18-.043.397.01.571-.053.222-.079.127-.337.288-.45.104-.074.287-.01.406-.051a.607.607 0 0 0 .376-.46c.016-.082.01-.145.039-.221.039-.103.111-.16.09-.293-.01-.062-.052-.12-.064-.187-.022-.114.002-.224 0-.337-.003-.2.017-.379-.078-.55-.38-.688-1.236-.929-1.975-.789-.18.034-.287.126-.442.207-.17.088-.139.166-.318.224-.081.026-.216.124-.215.224.001.115.005.051.012.169-.02.012-.021-.004-.03-.024M8.156-2.778a.247.247 0 0 1-.026.19c-.053.101-.112.063-.165.128a.638.638 0 0 0-.079.362c-.169.058-.01.227-.015.35-.003.05-.041.105-.045.161a.764.764 0 0 0 .068.37c.097.198.268.413.435.544.19.148.365.572.608.631.177.042.384-.104.543-.143.18-.043.397.01.571-.053.222-.079.127-.337.288-.45.104-.074.287-.01.406-.051a.607.607 0 0 0 .376-.46c.016-.082.01-.145.039-.221.039-.103.111-.16.09-.293-.01-.062-.052-.12-.064-.187-.022-.114.002-.224 0-.337-.003-.2.017-.379-.078-.55-.38-.688-1.236-.929-1.975-.789-.179.036-.286.128-.441.209-.17.088-.139.166-.318.224-.082.026-.216.123-.215.223.001.115.005.051.011.169-.02.011-.021-.005-.03-.025M.495-2.778a.242.242 0 0 1-.026.19c-.052.101-.113.063-.165.128a.63.63 0 0 0-.079.362c-.169.058-.01.227-.015.35-.002.05-.041.105-.045.161a.764.764 0 0 0 .068.37c.097.198.268.413.435.544.19.148.365.572.608.631.178.042.384-.104.543-.143.181-.043.398.01.572-.052.222-.079.127-.337.288-.45.104-.074.287-.01.406-.051.2-.07.339-.263.376-.46.016-.082.01-.145.039-.221.038-.103.111-.16.09-.293-.01-.062-.051-.12-.064-.187-.021-.114.002-.224 0-.337-.003-.2.017-.379-.078-.55-.38-.688-1.236-.929-1.975-.789-.18.035-.286.127-.442.208-.17.088-.139.166-.318.224-.081.026-.215.123-.215.223.002.115.005.051.012.169-.021.011-.022-.005-.031-.025"/></g></pattern></defs><circle fill="#0D0C11" cx="7.787" cy="7.787" r="7.787"/></svg>